<svg width="1733" height="723" viewBox="0 0 1733 723" fill="none" xmlns="http://www.w3.org/2000/svg">
<rect width="1733" height="688" transform="translate(0 35)" fill="#1E1E1E"/>
<path d="M720.965 497.631L721.025 497.977L721.371 498.038L744.092 502L721.371 505.962L721.025 506.023L720.965 506.369L717.002 529.09L713.04 506.369L712.98 506.023L712.633 505.962L689.913 502L712.633 498.038L712.98 497.977L713.04 497.631L717.002 474.91L720.965 497.631Z" stroke="white" stroke-opacity="0.5"/>
<circle cx="712" cy="194" r="14.5" stroke="white" stroke-opacity="0.5"/>
<path fill-rule="evenodd" clip-rule="evenodd" d="M1733 90L1657.42 83.3977C1581.83 76.7954 1430.67 63.417 1279.5 51.7761C1128.33 39.9614 977.167 30.0579 826 30.0579C674.833 30.0579 523.667 39.9614 372.5 45C221.333 50.0386 70.1666 50.0386 -5.41675 50.0386H-81V0H-5.41675C70.1666 0 221.333 0 372.5 0C523.667 0 674.833 0 826 0C977.167 0 1128.33 0 1279.5 0C1430.67 0 1581.83 0 1657.42 0H1733V90Z" fill="white"/>
</svg>
