<svg width="30" height="30" viewBox="0 0 30 30" fill="none" xmlns="http://www.w3.org/2000/svg">
<path fill-rule="evenodd" clip-rule="evenodd" d="M22.3819 1.26774C22.084 0.791706 21.6451 0.420405 21.1263 0.205517C20.6075 -0.00937175 20.0346 -0.0571555 19.4874 0.0688182L15.6036 0.960985C15.2056 1.05247 14.792 1.05247 14.394 0.960985L10.5102 0.0688182C9.96294 -0.0571555 9.39006 -0.00937175 8.87126 0.205517C8.35246 0.420405 7.91357 0.791706 7.61566 1.26774L5.4988 4.6463C5.28279 4.99194 4.99118 5.28357 4.64557 5.50175L1.26722 7.61875C0.792042 7.91641 0.42131 8.35462 0.206482 8.87257C-0.0083466 9.39051 -0.0566137 9.96249 0.0683799 10.5091L0.960489 14.3975C1.05164 14.7948 1.05164 15.2077 0.960489 15.605L0.0683799 19.4913C-0.0570995 20.0382 -0.0090753 20.6107 0.205776 21.129C0.420627 21.6474 0.791632 22.086 1.26722 22.3838L4.64557 24.5008C4.99118 24.7168 5.28279 25.0084 5.50096 25.3541L7.61783 28.7326C8.22697 29.7069 9.38908 30.1886 10.5102 29.9316L14.394 29.0394C14.792 28.9479 15.2056 28.9479 15.6036 29.0394L19.4896 29.9316C20.0365 30.057 20.6089 30.009 21.1272 29.7942C21.6456 29.5793 22.0841 29.2083 22.3819 28.7326L24.4988 25.3541C24.7148 25.0084 25.0064 24.7168 25.352 24.5008L28.7325 22.3838C29.2081 22.0856 29.579 21.6465 29.7934 21.1277C30.0079 20.6089 30.0554 20.0361 29.9292 19.4891L29.0392 15.605C28.9478 15.207 28.9478 14.7934 29.0392 14.3953L29.9314 10.5091C30.057 9.96239 30.0093 9.39011 29.7949 8.87174C29.5804 8.35338 29.2099 7.91468 28.7347 7.61659L25.3542 5.49959C25.009 5.28317 24.7173 4.99146 24.5009 4.6463L22.3819 1.26774ZM21.2954 10.1829C21.429 9.93723 21.4621 9.64929 21.3877 9.37969C21.3134 9.11009 21.1373 8.87985 20.8967 8.7374C20.656 8.59496 20.3695 8.55142 20.0974 8.61594C19.8253 8.68047 19.5888 8.84803 19.4377 9.08337L13.7891 18.6445L10.3784 15.3782C10.2772 15.2743 10.1561 15.1919 10.0224 15.1358C9.88865 15.0797 9.74499 15.0511 9.59996 15.0517C9.45494 15.0524 9.31152 15.0822 9.17827 15.1394C9.04503 15.1967 8.92468 15.2802 8.8244 15.385C8.72413 15.4898 8.64598 15.6137 8.59462 15.7493C8.54326 15.885 8.51975 16.0296 8.52548 16.1745C8.53121 16.3194 8.56606 16.4617 8.62796 16.5928C8.68987 16.724 8.77755 16.8414 8.88579 16.9379L13.2794 21.1481C13.397 21.2606 13.5384 21.345 13.6932 21.3951C13.848 21.4452 14.0121 21.4597 14.1733 21.4375C14.3345 21.4152 14.4885 21.3569 14.624 21.2668C14.7595 21.1766 14.8728 21.0571 14.9556 20.917L21.2954 10.1829Z" fill="#1E1E1E"/>
</svg>
