<svg width="35" height="35" viewBox="0 0 35 35" fill="none" xmlns="http://www.w3.org/2000/svg">
<g clip-path="url(#clip0_10_249)">
<path d="M2.18201 32.3121V35.0164H26.0093V32.3121C26.0093 28.1641 20.1605 26.0586 14.1859 26.0668C8.24959 26.075 2.18201 27.9207 2.18201 32.3121Z" fill="#1565C0"/>
<path d="M14.1012 24.6996H11.6184V27.3218C11.6184 28.5086 12.6301 29.4711 13.877 29.4711H14.3282C15.575 29.4711 16.5868 28.5086 16.5868 27.3218V24.6996H14.1012Z" fill="#7A4C32"/>
<path d="M16.6387 21.3801H11.591C11.3012 21.3801 11.1781 21.5742 11.3695 21.8668C11.6375 22.2742 12.6301 23.059 14.1148 23.059C15.5996 23.059 16.5922 22.2742 16.8602 21.8668C17.0516 21.5742 16.9285 21.3801 16.6387 21.3801Z" fill="#444444"/>
<path d="M15.3207 19.2363C14.8914 19.3566 14.4457 19.4168 14.1012 19.4168C13.7566 19.4168 13.3109 19.3566 12.8816 19.2363C12.6984 19.1844 12.6246 19.3594 12.693 19.4742C12.8297 19.7148 13.3766 20.1961 14.1012 20.1961C14.8258 20.1961 15.3727 19.7121 15.5094 19.4742C15.575 19.3566 15.5039 19.1844 15.3207 19.2363ZM22.9031 14.3555C22.9031 14.3555 24.5137 14.6344 24.5137 16.3707C24.5137 17.902 23.3379 18.5062 22.1621 18.5062V14.3555H22.9031ZM5.3293 14.3555C5.3293 14.3555 3.71875 14.6344 3.71875 16.3707C3.71875 17.902 4.89453 18.5062 6.07031 18.5062V14.3555H5.3293Z" fill="#7A4C32"/>
<path d="M14.1148 2.99139C7.16951 2.99139 5.35388 8.37538 5.35388 15.9387C5.35388 23.7808 10.3933 25.8098 14.1148 25.8098C17.7816 25.8098 22.8758 23.841 22.8758 15.9387C22.8785 8.37264 21.0601 2.99139 14.1148 2.99139Z" fill="#9B643C"/>
<path d="M11.2301 16.6387C11.2301 17.4207 10.7078 18.0524 10.0598 18.0524C9.41445 18.0524 8.88672 17.418 8.88672 16.6387C8.88672 15.8567 9.41172 15.2223 10.0598 15.2223C10.7078 15.2223 11.2301 15.8567 11.2301 16.6387ZM16.9996 16.6387C16.9996 17.4207 17.5219 18.0524 18.1727 18.0524C18.818 18.0524 19.343 17.418 19.343 16.6387C19.343 15.8567 18.818 15.2223 18.1727 15.2223C17.5219 15.2223 16.9996 15.8567 16.9996 16.6387ZM16.6523 21.4156H11.5828C11.293 21.4156 11.1672 21.6098 11.3586 21.9051C11.6266 22.3153 12.6273 23.1028 14.1176 23.1028C15.6078 23.1028 16.6086 22.3153 16.8766 21.9051C17.068 21.6125 16.9422 21.4156 16.6523 21.4156Z" fill="#42312C"/>
<path d="M15.3399 19.2609C14.9079 19.384 14.4594 19.4414 14.1149 19.4414C13.7704 19.4414 13.3219 19.3812 12.8899 19.2609C12.7067 19.209 12.6329 19.384 12.6985 19.4988C12.8352 19.7394 13.3876 20.2262 14.1149 20.2262C14.8422 20.2262 15.3946 19.7394 15.5313 19.4988C15.5969 19.384 15.5258 19.209 15.3399 19.2609Z" fill="#7A4C32"/>
<path d="M14.3254 2.00155C14.3254 2.00155 14.1887 1.99608 14.1313 1.99881C14.0738 1.99881 13.9371 2.00155 13.9371 2.00155C6.44219 2.14647 4.18359 6.65545 4.18359 9.78358C4.18359 12.8215 4.18633 15.0555 4.18633 15.0555C4.18633 15.0555 4.30664 14.9324 4.52539 14.7601C4.76055 14.5769 5.02031 14.4758 5.02031 14.4758L5.39766 17.0133L7.89414 11.7961C7.91055 11.7633 7.94336 11.7441 7.97891 11.7496L9.4582 11.9137C10.9457 12.0777 12.4414 12.1597 13.9344 12.1625V12.1652C14 12.1652 14.0629 12.1625 14.1285 12.1625C14.1941 12.1625 14.257 12.1652 14.3227 12.1652V12.1625C15.8156 12.157 17.3113 12.0777 18.7988 11.9137L20.2781 11.7496C20.3137 11.7469 20.3465 11.766 20.3629 11.7961L22.8594 17.0133L23.2422 14.473C23.2422 14.473 23.502 14.5769 23.7371 14.7574C23.9586 14.9297 24.0762 15.0527 24.0762 15.0527C24.0762 15.0527 24.0789 12.8215 24.0789 9.78084C24.0789 6.65545 21.8203 2.14647 14.3254 2.00155Z" fill="#47352D"/>
<path d="M9.93674 26.3976C9.47737 26.4742 9.02893 26.5644 8.59143 26.6683C7.95979 26.8187 7.35276 26.9965 6.78401 27.2043C6.33831 27.3656 5.91174 27.5461 5.51526 27.7457V35.0082H12.6957L11.0059 29.7281L9.93674 26.3976ZM21.4785 27.2644C20.9071 27.0457 20.3 26.857 19.6656 26.6957C19.2035 26.5808 18.7278 26.4769 18.241 26.3949L17.1746 29.7281L15.4848 35.0082H22.6653V27.7894C22.2906 27.598 21.8914 27.423 21.4785 27.2644Z" fill="#FF6D00"/>
<path d="M6.78125 27.2043L7.27617 35.0082H11.1043L8.58867 26.6683C7.95703 26.8187 7.35273 26.9965 6.78125 27.2043ZM19.6656 26.6957L17.1582 35.0082H20.9863L21.4785 27.2644C20.907 27.0457 20.3 26.857 19.6656 26.6957Z" fill="#F49406"/>
<path d="M14.0875 13.4695C20.6672 13.4695 26.0012 12.0764 26.0012 10.3578C26.0012 8.63926 20.6672 7.24609 14.0875 7.24609C7.50776 7.24609 2.17383 8.63926 2.17383 10.3578C2.17383 12.0764 7.50776 13.4695 14.0875 13.4695Z" fill="#F49406"/>
<path d="M14.0875 12.9035C20.6672 12.9035 26.0012 11.5103 26.0012 9.79177C26.0012 8.07322 20.6672 6.68005 14.0875 6.68005C7.50776 6.68005 2.17383 8.07322 2.17383 9.79177C2.17383 11.5103 7.50776 12.9035 14.0875 12.9035Z" fill="#F49406"/>
<path d="M24.7242 9.37345C24.5465 6.0211 22.0199 0.38829 14.2953 0.243368C14.2953 0.243368 14.1504 0.237899 14.0875 0.240634C14.0246 0.240634 13.8797 0.243368 13.8797 0.243368C6.15237 0.38829 3.62581 6.0211 3.45081 9.37345C3.45081 11.9957 24.7242 11.9957 24.7242 9.37345Z" fill="#F49406"/>
<mask id="mask0_10_249" style="mask-type:luminance" maskUnits="userSpaceOnUse" x="3" y="0" width="22" height="12">
<path d="M24.7242 9.37345C24.5465 6.0211 22.0199 0.38829 14.2953 0.243368C14.2953 0.243368 14.1504 0.237899 14.0875 0.240634C14.0246 0.240634 13.8797 0.243368 13.8797 0.243368C6.15237 0.38829 3.62581 6.0211 3.45081 9.37345C3.45081 11.9957 24.7242 11.9957 24.7242 9.37345Z" fill="white"/>
</mask>
<g mask="url(#mask0_10_249)">
<path d="M9.35706 0.88324L11.2574 0.240662V6.7348C10.8719 3.92933 10.3196 1.89769 9.35706 0.88324ZM18.8153 0.88324L16.9149 0.240662V6.7348C17.3031 3.92933 17.8555 1.89769 18.8153 0.88324Z" fill="#F49406"/>
</g>
<path d="M16.2887 10.284H11.8863C11.4844 10.284 11.1562 9.95588 11.1562 9.55393V0.803931C11.1562 0.401978 11.4844 0.0738525 11.8863 0.0738525H16.2887C16.6906 0.0738525 17.0188 0.401978 17.0188 0.803931V9.55393C17.0188 9.95862 16.6906 10.284 16.2887 10.284Z" fill="#F49406"/>
<path d="M27.8523 29.4246C28.2625 29.5258 28.525 29.8156 28.7082 30.1766C29.1648 30.0946 29.9523 30.0125 30.182 30.018C30.4527 30.0262 30.8109 30.0563 30.8711 30.6113C30.9094 30.9723 30.7727 31.2703 30.3106 31.3141C30.1383 31.3305 29.9606 31.3414 29.7856 31.3496L29.8484 31.552C30.0098 31.5492 30.1547 31.5438 30.2668 31.5438C30.7344 31.5383 30.9996 31.7871 30.9996 32.2821C30.9996 32.7168 30.625 32.9219 30.3516 32.9383C30.2066 32.9465 29.802 32.9246 29.4027 32.8863L29.3617 32.9711L29.3453 32.9957C29.5969 33.034 29.8375 33.075 30.007 33.1051C30.4637 33.1871 30.6824 33.4906 30.6305 33.8516C30.5676 34.2891 30.1766 34.4094 29.9059 34.4012C29.7035 34.3957 28.9926 34.2836 28.5168 34.1824L28.4238 34.3164C28.4566 34.3219 28.4922 34.3274 28.5305 34.3328C28.5359 34.3328 28.5414 34.3356 28.5496 34.3356L28.6453 34.352C28.6535 34.352 28.659 34.3547 28.6672 34.3547C28.7055 34.3602 28.7438 34.3684 28.782 34.3738H28.7875C28.8285 34.3793 28.8695 34.3875 28.9106 34.3957C28.9188 34.3957 28.927 34.3985 28.9324 34.3985L29.0281 34.4149C29.0418 34.4176 29.0527 34.4203 29.0664 34.4203C29.0938 34.4258 29.1211 34.4313 29.1457 34.434L29.1867 34.4422C29.2141 34.4477 29.2387 34.4531 29.2633 34.4559L29.3016 34.4641C29.3371 34.4723 29.3754 34.4778 29.4082 34.486C29.8266 34.5735 29.9852 34.7621 29.9332 35.093C29.8621 35.5578 29.3945 35.6617 29.1457 35.6371C28.8969 35.6153 28.0602 35.443 27.7867 35.3227L27.7375 35.2981L27.6418 35.4348C26.4113 35.3528 25.5281 34.8387 25.5281 34.8387C24.8063 34.434 24.6859 34.1223 24.5656 33.6274C24.4289 33.0641 24.4617 32.3969 24.4672 32.293C24.5109 31.1719 24.7598 30.4473 25.6648 29.8457C25.8836 29.7008 26.2035 29.4465 26.9117 29.3645C27.1852 29.3371 27.5789 29.3563 27.8523 29.4246Z" fill="#9B643C"/>
<path d="M28.8749 31.2867C28.8749 31.2867 28.8859 30.7234 28.7081 30.1765L28.905 30.141C28.905 30.141 29.0445 30.5293 29.0937 31.1035C29.1019 31.1965 29.1046 31.2812 29.1046 31.3633L29.2796 31.3523L30.4527 31.2867C30.4527 31.2867 30.3652 31.3031 30.3652 31.4343C30.3652 31.489 30.398 31.5246 30.4226 31.5465C30.3734 31.541 30.3187 31.5355 30.264 31.5383L29.0992 31.5683C29.0964 31.6011 29.0964 31.634 29.0937 31.6695C29.0663 32.1453 28.9542 32.6019 28.689 32.7769C29.5695 32.8808 30.3515 32.9328 30.3515 32.9328C30.1984 32.9957 30.264 33.1816 30.264 33.1816C29.6706 33.0203 28.2324 32.9355 28.2324 32.9355C27.6253 32.8836 27.5433 33.2937 27.5433 33.2937C27.4312 33.7886 27.9699 34.0156 27.9699 34.0156C28.041 34.0566 28.6835 34.1851 29.1429 34.2726L29.6023 34.3574L29.7308 34.382C29.7171 34.3793 29.6624 34.3765 29.6406 34.4668C29.6296 34.5105 29.6406 34.5406 29.6488 34.5597C29.5804 34.5297 29.4984 34.5023 29.4027 34.4832C29.1867 34.4394 28.5331 34.3328 28.4839 34.3246L28.3199 34.3027C27.7785 34.2316 27.6472 34.3273 27.6472 34.3273C27.3464 34.4859 27.4339 34.8687 27.4339 34.8687C27.4995 35.2379 27.907 35.3527 27.907 35.3527C28.0628 35.3992 28.8886 35.5988 28.8886 35.5988L27.639 35.4347C27.5515 35.4074 27.5187 35.3664 27.4695 35.3281C27.0292 34.9672 27.2152 34.4777 27.2152 34.4777C27.2835 34.289 27.4257 34.2043 27.4257 34.2043C27.5105 34.1523 27.6089 34.125 27.7101 34.114C27.1988 33.8433 27.2808 33.2965 27.2808 33.2965C27.3464 32.9601 27.5898 32.8179 27.7812 32.7578C27.7648 32.7441 27.7456 32.7304 27.7292 32.714C27.7292 32.714 27.4011 32.498 27.5214 31.5711C27.5624 31.2593 27.557 31.2156 27.5242 31.0187C27.5242 31.0187 27.4066 30.5976 27.0566 30.7316C27.0566 30.7316 26.939 30.7617 26.7558 30.9066C26.7558 30.9066 26.6081 31.0215 26.6109 30.841C26.6109 30.7863 26.6492 30.6879 26.723 30.6031C26.723 30.6031 26.7995 30.5129 26.9882 30.4609C26.9882 30.4609 27.4777 30.2668 27.721 30.7562C27.8495 31.0133 27.8249 31.1828 27.7839 31.4453C27.7839 31.4453 27.7074 32.2738 27.9234 32.539C27.9234 32.539 28.1367 32.7824 28.4785 32.632C28.4812 32.6375 28.946 32.3804 28.8749 31.2867Z" fill="#7A4C32"/>
<path d="M26.3183 34.4969L28.2898 20.3L30.4718 20.6281L28.1175 34.7676C28.0628 35.1312 27.6171 35.3664 27.1249 35.2926C26.6273 35.2187 26.2636 34.8605 26.3183 34.4969Z" fill="#F79329"/>
<path d="M23.9067 19.2828C24.8446 17.8582 26.4742 17.2703 27.743 17.1664C28.0711 17.1391 28.3992 17.1828 28.6399 17.2102C29.0582 17.2594 29.9332 17.4344 29.9332 17.4344L31.016 17.6231C31.0434 17.6285 31.068 17.6367 31.0953 17.6422C31.325 17.6778 31.5848 17.6996 31.8199 17.6778C32.1125 17.6504 32.2547 17.4836 32.5856 17.4235C32.7442 17.3961 32.9192 17.3961 33.0696 17.4098C33.1215 17.4071 33.1735 17.4098 33.2254 17.4207L33.3348 17.4399C33.395 17.4481 33.4332 17.4563 33.4332 17.4563L34.3957 17.6231C34.7785 17.6887 35.0438 18.0086 34.9891 18.334L34.4231 21.6098C34.3657 21.9352 34.0075 22.1457 33.6246 22.0801L32.6621 21.9133C32.6621 21.9133 32.6211 21.9078 32.5637 21.8969L32.4543 21.8778C32.4024 21.8696 32.3504 21.8532 32.3039 21.8367C32.159 21.7957 31.7407 21.2789 31.6012 21.1996C31.3086 21.0328 31.2293 21.4157 30.8629 21.5141C30.6551 21.5688 30.4063 21.525 30.3407 21.5141L30.2532 21.4977C30.1821 21.4867 30.1164 21.4758 30.0809 21.4676L28.1723 21.1367C27.9043 21.0903 27.6992 20.9207 27.6145 20.7129C27.5926 20.6555 27.5352 20.475 27.5242 20.4285C27.4176 19.9582 27.2508 19.3239 26.693 19.2282C26.0832 19.1215 25.4133 19.559 25.4133 19.559C25.4133 19.559 24.8227 19.9746 24.2758 19.7914C23.7344 19.611 23.9067 19.2828 23.9067 19.2828Z" fill="#78A3AD"/>
<path d="M28.5715 16.975C28.5305 17.098 28.5277 17.2457 28.5195 17.3742C28.5113 17.489 28.5715 17.6066 28.6617 17.6804C28.7547 17.757 28.886 17.809 29.0008 17.8472C29.2305 17.9238 29.4602 17.984 29.7008 18.014C29.8211 18.0304 29.9387 18.0222 30.059 18.014C30.1738 18.0086 30.2942 18.0113 30.4063 17.9758C30.5047 17.9457 30.6168 17.9238 30.7125 17.8828C30.8328 17.8308 30.9012 17.8144 30.9422 17.6859C30.9805 17.5656 31.0133 17.4535 31.027 17.3277C31.0461 17.1527 31.0242 17.0406 30.8711 16.9394C30.5813 16.7453 30.1985 16.6961 29.8649 16.6523C29.5504 16.6113 29.2059 16.6086 28.9078 16.6988C28.7328 16.7562 28.6289 16.8 28.5715 16.975Z" fill="#F79329"/>
<path d="M33.0121 18.8481C32.7906 18.7797 32.7058 18.725 32.6539 18.6293C32.5855 18.4981 32.6402 18.3012 32.6922 18.1617C32.7386 18.0332 32.9273 17.9922 33.1597 18.0223C33.3922 18.0524 33.8844 18.118 33.95 18.1344C34.0402 18.1563 34.125 18.1918 34.1851 18.241C34.3547 18.3832 34.3547 18.6594 34.2344 18.8371C34.1633 18.9438 34.0402 18.9766 33.909 18.9793C33.7668 18.9848 33.157 18.8945 33.0121 18.8481ZM31.1801 19.0067C30.8328 19.0641 30.3871 19.0422 30.2668 19.0422C29.8129 19.0395 29.225 18.9684 28.659 18.8262C28.0711 18.6785 27.7922 18.3996 27.464 18.3039C27.207 18.2301 26.8953 18.2629 26.6355 18.2301C26.6082 18.2274 26.4578 18.2082 26.4168 18.1481C26.3484 18.0414 26.4851 17.9567 26.723 17.8774C26.8351 17.8391 27.3492 17.6859 27.8797 17.6805C27.9097 17.6805 28.0383 17.6832 28.0957 17.7625C28.3527 18.1152 28.514 18.282 28.9789 18.3859C29.4027 18.4817 29.8539 18.5445 30.3926 18.5281C30.9312 18.5117 30.9203 18.2383 31.1992 18.2656C31.2648 18.2711 31.3496 18.282 31.4234 18.2957C31.5847 18.3285 31.5929 18.4297 31.582 18.4953C31.5656 18.5992 31.5328 18.7305 31.5191 18.8016C31.4945 18.9383 31.2867 18.9902 31.1801 19.0067Z" fill="white"/>
<path d="M30.3215 32.9355H30.3516C30.6223 32.9191 30.9969 32.7141 30.9997 32.2793C30.9997 31.8035 30.7563 31.5574 30.3215 31.5437L30.3024 31.4426L30.4446 31.4344C30.6852 31.3769 30.811 31.232 30.8547 31.0461C30.8711 31.0187 30.8766 30.707 30.8739 30.6715C30.852 30.3789 30.7454 30.2422 30.7454 30.2422C30.636 29.9633 29.9633 30.0262 29.9633 30.0262L28.7356 30.1902C28.6918 30.1766 28.6481 30.1629 28.6071 30.1492C28.4293 29.8703 28.1915 29.6543 27.8497 29.5695C27.5762 29.5039 27.1852 29.482 26.909 29.5148C26.2008 29.5969 25.8809 29.8512 25.6622 29.9961C25.6157 30.0262 25.5774 30.059 25.5364 30.0918C25.7852 30.543 26.1625 31.016 26.6247 30.9367C26.6547 30.8683 26.704 30.7973 26.7258 30.7726C26.8243 30.666 26.961 30.5894 27.1059 30.573C27.3329 30.5457 27.568 30.6578 27.6911 30.8492C27.8825 31.1445 27.661 31.5355 27.6473 31.8883C27.6418 32.0551 27.7786 32.2164 27.8114 32.3805C27.8415 32.5363 27.9016 32.7004 28.0356 32.7851C28.0438 32.7906 28.0575 32.7906 28.0657 32.7961C28.0575 32.8234 28.0383 32.8781 28.0165 32.9492C27.929 32.9547 27.8442 32.9711 27.7704 33.0121C27.6008 33.1051 27.5133 33.3101 27.5352 33.4988C27.5516 33.6383 27.6254 33.7668 27.7293 33.8625C27.6637 34.0758 27.609 34.2672 27.5817 34.3793C27.393 34.5242 27.3739 34.8332 27.5051 35.0383C27.6418 35.2543 27.8934 35.3719 28.1422 35.4348C28.3911 35.4976 28.6481 35.5195 28.8915 35.6015C28.8778 35.5988 28.8668 35.5988 28.8532 35.5961C28.9762 35.618 29.0801 35.6344 29.1458 35.6398C29.3918 35.6617 29.8622 35.5578 29.9333 35.0957C29.9743 34.8305 29.8758 34.6582 29.6215 34.5543C29.6024 34.4859 29.5696 34.4094 29.5504 34.3519C29.5969 34.3601 29.6461 34.3711 29.6926 34.3793C29.7829 34.3902 29.8594 34.3984 29.9059 34.3984C30.1766 34.4066 30.5704 34.2863 30.6305 33.8488C30.6715 33.559 30.5375 33.3101 30.2477 33.1789C30.1411 33.157 30.0317 33.1406 29.925 33.1215C29.9688 33.0504 30.0125 32.9793 30.0563 32.9109L30.3215 32.9355Z" fill="#9B643C"/>
<path d="M30.4418 31.5519C30.4036 31.5027 30.3954 31.4234 30.3954 31.4234H30.3871C30.2887 31.4152 29.1102 31.366 29.1102 31.366C29.1047 30.9859 28.9489 30.532 28.8422 30.1683C28.7711 30.1601 28.6864 30.1683 28.6125 30.1437C28.7055 30.5019 28.8778 30.9203 28.8887 31.2867C28.8969 31.5328 28.8805 31.7762 28.8286 32.0168C28.7875 32.2109 28.7219 32.4078 28.5797 32.5473C28.4375 32.6867 28.2051 32.7441 28.0383 32.6375C27.9043 32.5527 27.8469 32.3887 27.8141 32.2328C27.7813 32.0687 27.7676 31.9019 27.7758 31.7379C27.7895 31.3851 27.8852 30.9996 27.6965 30.7043C27.5735 30.5129 27.3356 30.4008 27.1114 30.4281C26.9664 30.4445 26.8297 30.5211 26.7313 30.6277C26.6848 30.6797 26.5043 30.9367 26.6903 30.9422C26.7422 30.9422 26.7887 30.9066 26.8297 30.8738C26.9555 30.7726 27.1141 30.6797 27.27 30.7262C27.4614 30.7836 27.5352 31.016 27.5434 31.2156C27.5543 31.4891 27.4969 31.7598 27.4969 32.0305C27.4969 32.3039 27.5707 32.5965 27.7813 32.7687C27.4969 32.8316 27.2864 33.1133 27.2782 33.4058C27.27 33.6984 27.4532 33.9773 27.7075 34.1195C27.4696 34.125 27.2618 34.3164 27.1989 34.5461C27.136 34.7758 27.2071 35.0273 27.352 35.216C27.4149 35.298 27.4914 35.3691 27.5844 35.4129C27.6036 35.4211 27.6254 35.4266 27.6473 35.432L27.7348 35.3062L27.7047 35.3473L27.6446 35.432C27.7075 35.4512 27.7758 35.4621 27.8414 35.473C27.8797 35.4785 27.918 35.484 27.959 35.4867C28.2571 35.525 28.5551 35.5633 28.8532 35.5988C28.8668 35.6016 28.8778 35.6016 28.8914 35.6043C28.6481 35.5223 28.3911 35.5004 28.1422 35.4375C27.8934 35.3746 27.6446 35.257 27.5051 35.041C27.3684 34.825 27.393 34.4941 27.609 34.3601C27.7403 34.2781 27.9016 34.2836 28.0547 34.2945C28.2981 34.3109 28.5387 34.341 28.7793 34.3793C28.845 34.3902 28.9106 34.4012 28.9735 34.4121L29.0227 34.4203C29.0364 34.423 29.0473 34.4258 29.061 34.4258C29.0883 34.4312 29.1157 34.4367 29.1403 34.4394L29.1813 34.4476C29.2086 34.4531 29.2332 34.4586 29.2579 34.4613L29.2961 34.4695C29.3317 34.4777 29.37 34.4832 29.4028 34.4914C29.4766 34.5078 29.5368 34.5269 29.5942 34.5461C29.6106 34.5515 29.6297 34.5543 29.6461 34.5598C29.6079 34.4969 29.6543 34.4012 29.7254 34.3902L29.6871 34.382L28.35 34.1195C28.175 34.084 27.9946 34.0484 27.8442 33.9582C27.6801 33.8598 27.5543 33.6902 27.5297 33.4988C27.5051 33.3074 27.5954 33.1023 27.7649 33.0121C27.8934 32.941 28.0465 32.9437 28.1942 32.9465C28.8805 32.9683 29.5668 33.0476 30.2422 33.1816C30.2477 33.1816 30.2559 33.1844 30.2614 33.1844C30.2176 33.0996 30.2614 32.9793 30.3489 32.941C30.3379 32.941 30.327 32.9383 30.3188 32.9383C29.7774 32.8891 29.236 32.8371 28.6946 32.7879C29.0254 32.498 29.0746 32.0086 29.0993 31.5711C29.0993 31.5683 30.3871 31.5519 30.4418 31.5519Z" fill="#7A4C32"/>
</g>
<defs>
<clipPath id="clip0_10_249">
<rect width="35" height="35" fill="white"/>
</clipPath>
</defs>
</svg>
