<svg width="71" height="70" viewBox="0 0 71 70" fill="none" xmlns="http://www.w3.org/2000/svg">
<path fill-rule="evenodd" clip-rule="evenodd" d="M23.3754 11.0891C29.2933 7.58617 32.2508 5.83325 35.5 5.83325C38.7492 5.83325 41.7067 7.58325 47.6246 11.0891L49.6254 12.2733C55.5433 15.7791 58.5008 17.532 60.1254 20.4166C61.75 23.3041 61.75 26.8041 61.75 33.8158V36.1841C61.75 43.1928 61.75 46.6987 60.1254 49.5833C58.5008 52.4708 55.5433 54.2208 49.6254 57.7237L47.6246 58.9108C41.7067 62.4137 38.7492 64.1666 35.5 64.1666C32.2508 64.1666 29.2933 62.4166 23.3754 58.9108L21.3746 57.7237C15.4567 54.2237 12.4992 52.4678 10.8746 49.5833C9.25 46.6958 9.25 43.1958 9.25 36.1841V33.8158C9.25 26.8041 9.25 23.3012 10.8746 20.4166C12.4992 17.5291 15.4567 15.7791 21.3746 12.2733L23.3754 11.0891ZM38.4167 46.6666C38.4167 47.4401 38.1094 48.182 37.5624 48.729C37.0154 49.276 36.2735 49.5833 35.5 49.5833C34.7265 49.5833 33.9846 49.276 33.4376 48.729C32.8906 48.182 32.5833 47.4401 32.5833 46.6666C32.5833 45.893 32.8906 45.1512 33.4376 44.6042C33.9846 44.0572 34.7265 43.7499 35.5 43.7499C36.2735 43.7499 37.0154 44.0572 37.5624 44.6042C38.1094 45.1512 38.4167 45.893 38.4167 46.6666ZM35.5 18.2291C36.0802 18.2291 36.6366 18.4596 37.0468 18.8698C37.457 19.28 37.6875 19.8364 37.6875 20.4166V37.9166C37.6875 38.4967 37.457 39.0531 37.0468 39.4634C36.6366 39.8736 36.0802 40.1041 35.5 40.1041C34.9198 40.1041 34.3634 39.8736 33.9532 39.4634C33.543 39.0531 33.3125 38.4967 33.3125 37.9166V20.4166C33.3125 19.8364 33.543 19.28 33.9532 18.8698C34.3634 18.4596 34.9198 18.2291 35.5 18.2291Z" fill="#F44336"/>
</svg>
