<svg width="30" height="39" viewBox="0 0 30 39" fill="none" xmlns="http://www.w3.org/2000/svg">
<path d="M10.6 12.2C11.72 12.2 12.62 11.3 12.62 10.18C12.62 9.06 11.72 8.16 10.6 8.16C9.48002 8.16 8.58002 9.06 8.58002 10.18C8.58002 11.3 9.48002 12.2 10.6 12.2Z" fill="#F49406"/>
<path fill-rule="evenodd" clip-rule="evenodd" d="M14.66 16.6C14.66 14.44 12.84 12.88 10.6 12.88C8.36 12.88 6.54 14.44 6.54 16.6V17.62C6.54 17.8 6.62 17.98 6.74 18.1C6.86 18.22 7.04 18.3 7.22 18.3H13.98C14.16 18.3 14.34 18.22 14.46 18.1C14.58 17.98 14.66 17.8 14.66 17.62V16.6ZM6.5 22.5C6.5 22.1022 6.65804 21.7206 6.93934 21.4393C7.22064 21.158 7.60218 21 8 21H22C22.3978 21 22.7794 21.158 23.0607 21.4393C23.342 21.7206 23.5 22.1022 23.5 22.5C23.5 22.8978 23.342 23.2794 23.0607 23.5607C22.7794 23.842 22.3978 24 22 24H8C7.60218 24 7.22064 23.842 6.93934 23.5607C6.65804 23.2794 6.5 22.8978 6.5 22.5ZM6.5 28.5C6.5 28.1022 6.65804 27.7206 6.93934 27.4393C7.22064 27.158 7.60218 27 8 27H22C22.3978 27 22.7794 27.158 23.0607 27.4393C23.342 27.7206 23.5 28.1022 23.5 28.5C23.5 28.8978 23.342 29.2794 23.0607 29.5607C22.7794 29.842 22.3978 30 22 30H8C7.60218 30 7.22064 29.842 6.93934 29.5607C6.65804 29.2794 6.5 28.8978 6.5 28.5Z" fill="#F49406"/>
<path fill-rule="evenodd" clip-rule="evenodd" d="M0 4.5C0 2.296 1.796 0.5 4 0.5H17.38C18.504 0.5 19.564 0.976 20.31 1.762L20.322 1.776L28.946 11.18C29.664 11.946 30 12.948 30 13.9V34.5C30 36.704 28.204 38.5 26 38.5H4C1.796 38.5 0 36.704 0 34.5V4.5ZM17.378 4.5H4V34.5H26V13.884L17.408 4.514L17.402 4.512C17.3947 4.50671 17.3866 4.50266 17.378 4.5Z" fill="#F49406"/>
<path fill-rule="evenodd" clip-rule="evenodd" d="M17.38 0.5C17.9104 0.5 18.4191 0.710714 18.7942 1.08579C19.1693 1.46086 19.38 1.96957 19.38 2.5V11.9H28C28.2626 11.9 28.5227 11.9517 28.7654 12.0522C29.008 12.1528 29.2285 12.3001 29.4142 12.4858C29.5999 12.6715 29.7473 12.892 29.8478 13.1346C29.9483 13.3773 30 13.6374 30 13.9C30 14.1626 29.9483 14.4227 29.8478 14.6654C29.7473 14.908 29.5999 15.1285 29.4142 15.3142C29.2285 15.4999 29.008 15.6472 28.7654 15.7478C28.5227 15.8483 28.2626 15.9 28 15.9H17.38C16.8496 15.9 16.3409 15.6893 15.9658 15.3142C15.5907 14.9391 15.38 14.4304 15.38 13.9V2.5C15.38 1.96957 15.5907 1.46086 15.9658 1.08579C16.3409 0.710714 16.8496 0.5 17.38 0.5Z" fill="#F49406"/>
</svg>
