<svg width="34" height="34" viewBox="0 0 34 34" fill="none" xmlns="http://www.w3.org/2000/svg">
<path d="M17.2299 10.3333C20.3965 10.3333 23.0632 12.5 23.7299 15.5C23.8965 16.3333 24.8965 17 25.7299 16.6667C26.5632 16.5 27.2299 15.5 26.8965 14.6667C25.8965 10 21.8965 7 17.2299 7C11.7299 7 7.22986 11.5 7.22986 17C7.22986 22.1667 11.2299 26.5 16.3965 27H16.5632C17.3965 27 18.0632 26.3333 18.2299 25.5C18.3965 24.6667 17.5632 23.8333 16.7299 23.6667C13.3965 23.3333 10.5632 20.3333 10.5632 17C10.5632 13.3333 13.5632 10.3333 17.2299 10.3333Z" fill="#1E1E1E"/>
<path d="M17.2299 30.3333C9.89657 30.3333 3.89657 24.3333 3.89657 17C3.89657 9.66665 9.89657 3.66665 17.2299 3.66665C24.2299 3.66665 30.0632 9.16665 30.5632 16.1666C30.5632 17.1666 31.3966 17.8333 32.3966 17.6666C33.3966 17.6666 34.0632 16.8333 33.8966 15.8333C33.2299 7.16665 26.0632 0.333313 17.2299 0.333313C8.06323 0.333313 0.563232 7.83331 0.563232 17C0.563232 26.1666 8.06323 33.6666 17.2299 33.6666C18.2299 33.6666 18.8966 33 18.8966 32C18.8966 31 18.2299 30.3333 17.2299 30.3333Z" fill="#1E1E1E"/>
<path d="M32.7299 21.1667C32.5632 21 32.2299 20.8333 32.0632 20.8333L21.2299 17.1667C20.2299 16.8333 19.0632 17.1667 18.2299 18C17.3965 18.8333 17.2299 20 17.7299 21L22.7299 32C23.2299 33 24.2299 33.6667 25.2299 33.6667C25.3965 33.6667 25.5632 33.6667 25.7299 33.6667C27.0632 33.5 27.8965 32.5 28.0632 31.1667L28.5632 27.1667L31.8965 26.1667C32.8965 25.8333 33.7299 25 33.8965 23.8333C34.0632 22.8333 33.5632 21.6667 32.7299 21.1667ZM27.3965 24C26.2299 24.3333 25.5632 25.1667 25.3965 26.3333L25.0632 28.8333L21.3965 20.6667L29.3965 23.3333L27.3965 24Z" fill="#1E1E1E"/>
</svg>
