<svg width="35" height="35" viewBox="0 0 35 35" fill="none" xmlns="http://www.w3.org/2000/svg">
<path d="M24.9531 21.9158L17.5 28.4373L10.0469 21.9158C4.46094 22.1277 0 26.1267 0 31.0623V31.7185C0 33.53 1.67969 34.9998 3.75 34.9998H31.25C33.3203 34.9998 35 33.53 35 31.7185V31.0623C35 26.1267 30.5391 22.1277 24.9531 21.9158ZM1.0625 5.45483L1.5625 5.55737V9.54956C1.01562 9.83667 0.625 10.3357 0.625 10.9373C0.625 11.5115 0.984375 11.99 1.49219 12.2839L0.273438 16.5427C0.140625 17.0144 0.4375 17.4998 0.867188 17.4998H4.13281C4.5625 17.4998 4.85938 17.0144 4.72656 16.5427L3.50781 12.2839C4.01562 11.99 4.375 11.5115 4.375 10.9373C4.375 10.3357 3.98438 9.83667 3.4375 9.54956V5.95386L8.59375 7.04077C7.92188 8.21655 7.5 9.52905 7.5 10.9373C7.5 15.7703 11.9766 19.6873 17.5 19.6873C23.0234 19.6873 27.5 15.7703 27.5 10.9373C27.5 9.52905 27.0859 8.21655 26.4062 7.04077L33.9297 5.45483C35.3516 5.15405 35.3516 3.60229 33.9297 3.30151L19.0547 0.156982C18.0391 -0.0549316 16.9688 -0.0549316 15.9531 0.156982L1.0625 3.29468C-0.351562 3.59546 -0.351562 5.15405 1.0625 5.45483Z" fill="black"/>
</svg>
