<svg width="40" height="41" viewBox="0 0 40 41" fill="none" xmlns="http://www.w3.org/2000/svg">
<g clip-path="url(#clip0_10_289)">
<path d="M19.8389 36.4167C22.4939 36.4167 24.0106 35.17 24.37 33.555H15.3089C15.6683 35.17 17.1839 36.4167 19.8389 36.4167Z" fill="white"/>
<path d="M25.1128 6.41943C25.1128 6.41943 18.3183 4.49888 15.0017 7.12443C11.685 9.74999 11.4456 15.7911 11.4456 15.7911C11.7706 17.0205 13.7933 20.5094 13.7933 20.5094C14.0933 21.0155 15.045 24.6655 15.5983 26.8205H24.4428C24.9239 25.24 26.8594 19.515 27.1122 18.9261C27.4367 18.1689 27.99 16.695 28.2694 16.1389C28.9417 14.8005 28.9172 13.6205 28.5683 12.235C27.8139 9.24332 27.1939 8.49999 25.1122 6.41832L25.1128 6.41943Z" fill="#F49406"/>
<path d="M19.8389 4.50112C15.0989 4.50112 10.6722 8.25223 10.6722 12.99C10.6722 13.5895 10.5256 15.485 11.3484 15.485C11.3484 15.485 12.6778 11.1378 15.9939 8.51278C19.31 5.88778 24.6161 6.44334 24.6161 6.44334C24.2472 5.30723 21.5328 4.49945 19.8406 4.49945L19.8389 4.50112Z" fill="white"/>
<g filter="url(#filter0_d_10_289)">
<path d="M20 26.7333V20.1M23.3167 20.1H16.6833M29.1944 13.6944C29.1944 15.9083 28.2028 16.9767 27.1089 19.5278C26.8294 20.1789 24.7694 26.9611 24.7694 26.9611H15.2305C15.2305 26.9611 13.5744 20.4778 13.2605 19.95C11.9439 17.7289 10.8055 16.1111 10.8055 13.6944C10.8055 8.61611 14.9222 4.5 20 4.5C25.0778 4.5 29.1944 8.61667 29.1944 13.6944Z" stroke="black" stroke-width="2" stroke-linecap="round" stroke-linejoin="round"/>
<path d="M24.5333 33.1611C24.5333 34.9611 22.505 36.4205 20.0028 36.4205C17.5006 36.4205 15.4722 34.9611 15.4722 33.1611H24.5333Z" stroke="black" stroke-width="1.696" stroke-linecap="round" stroke-linejoin="round"/>
<path d="M15.55 31.0444L24.45 29.1167" stroke="black" stroke-width="1.965" stroke-linecap="round" stroke-linejoin="round"/>
<path d="M21.2222 31.65L24.4333 30.9944M15.5667 29.1667L18.7778 28.5111" stroke="black" stroke-width="2" stroke-linecap="round" stroke-linejoin="round"/>
</g>
</g>
<defs>
<filter id="filter0_d_10_289" x="5.80554" y="3.5" width="28.3889" height="41.7686" filterUnits="userSpaceOnUse" color-interpolation-filters="sRGB">
<feFlood flood-opacity="0" result="BackgroundImageFix"/>
<feColorMatrix in="SourceAlpha" type="matrix" values="0 0 0 0 0 0 0 0 0 0 0 0 0 0 0 0 0 0 127 0" result="hardAlpha"/>
<feOffset dy="4"/>
<feGaussianBlur stdDeviation="2"/>
<feComposite in2="hardAlpha" operator="out"/>
<feColorMatrix type="matrix" values="0 0 0 0 0 0 0 0 0 0 0 0 0 0 0 0 0 0 0.25 0"/>
<feBlend mode="normal" in2="BackgroundImageFix" result="effect1_dropShadow_10_289"/>
<feBlend mode="normal" in="SourceGraphic" in2="effect1_dropShadow_10_289" result="shape"/>
</filter>
<clipPath id="clip0_10_289">
<rect width="40" height="40" fill="white" transform="translate(0 0.5)"/>
</clipPath>
</defs>
</svg>
