<svg width="20" height="21" viewBox="0 0 20 21" fill="none" xmlns="http://www.w3.org/2000/svg">
<g clip-path="url(#clip0_10_1422)">
<path d="M18.125 0.968822H1.875C1.5063 0.96507 1.15117 1.10774 0.887529 1.36551C0.623892 1.62329 0.473283 1.97513 0.46875 2.34382V18.6594C0.474103 19.0276 0.625072 19.3786 0.88862 19.6357C1.15217 19.8928 1.50683 20.0351 1.875 20.0313H18.125C18.4937 20.0342 18.8486 19.8911 19.1121 19.6332C19.3756 19.3752 19.5263 19.0235 19.5312 18.6548V2.33913C19.5247 1.97152 19.3733 1.62136 19.1099 1.36477C18.8466 1.10817 18.4927 0.965881 18.125 0.968822Z" fill="#0076B2"/>
<path d="M3.29067 8.11401H6.12036V17.2187H3.29067V8.11401ZM4.7063 3.58276C5.03085 3.58276 5.34811 3.67902 5.61794 3.85937C5.88778 4.03971 6.09806 4.29603 6.22219 4.59591C6.34632 4.89579 6.37872 5.22574 6.31528 5.54403C6.25185 5.86233 6.09544 6.15466 5.86584 6.38404C5.63624 6.61342 5.34376 6.76955 5.02541 6.83268C4.70706 6.89581 4.37713 6.86309 4.07738 6.73868C3.77762 6.61426 3.5215 6.40374 3.34141 6.13373C3.16132 5.86373 3.06537 5.54638 3.06567 5.22183C3.06609 4.78698 3.23912 4.37008 3.54675 4.06274C3.85439 3.7554 4.27145 3.58276 4.7063 3.58276ZM7.89536 8.11401H10.6079V9.36401H10.6454C11.0235 8.64839 11.9454 7.8937 13.3219 7.8937C16.1875 7.88745 16.7188 9.77339 16.7188 12.2187V17.2187H13.8891V12.789C13.8891 11.7343 13.8704 10.3765 12.4188 10.3765C10.9672 10.3765 10.7204 11.5265 10.7204 12.7203V17.2187H7.89536V8.11401Z" fill="white"/>
</g>
<defs>
<clipPath id="clip0_10_1422">
<rect width="20" height="20" fill="white" transform="translate(0 0.5)"/>
</clipPath>
</defs>
</svg>
