<svg width="28" height="34" viewBox="0 0 28 34" fill="none" xmlns="http://www.w3.org/2000/svg">
<path d="M17.4424 16.15C18.7885 15.3264 19.8936 14.1624 20.6463 12.7754C21.3991 11.3884 21.7728 9.8275 21.7299 8.25C21.7299 6.26088 20.9397 4.35322 19.5332 2.9467C18.1266 1.54018 16.219 0.75 14.2299 0.75C12.2407 0.75 10.3331 1.54018 8.92656 2.9467C7.52003 4.35322 6.72986 6.26088 6.72986 8.25C6.6869 9.8275 7.06063 11.3884 7.81337 12.7754C8.56612 14.1624 9.67126 15.3264 11.0174 16.15C8.01802 16.8707 5.34814 18.579 3.43693 21.0003C1.52573 23.4216 0.484224 26.4153 0.479858 29.5V33.25H2.97986V29.5C2.97843 26.9497 3.84355 24.4746 5.43337 22.4806C7.02318 20.4865 9.24335 19.0917 11.7299 18.525C11.7825 18.7516 11.8898 18.9619 12.0424 19.1375L12.8799 19.9625L11.7299 29.375C11.7111 29.5601 11.7339 29.7471 11.7967 29.9222C11.8594 30.0974 11.9604 30.2563 12.0924 30.3875L13.3424 31.6375C13.4586 31.7547 13.5968 31.8477 13.7491 31.9111C13.9015 31.9746 14.0648 32.0072 14.2299 32.0072C14.3949 32.0072 14.5583 31.9746 14.7106 31.9111C14.8629 31.8477 15.0012 31.7547 15.1174 31.6375L16.3674 30.3875C16.4993 30.2563 16.6003 30.0974 16.6631 29.9222C16.7258 29.7471 16.7486 29.5601 16.7299 29.375L15.4799 19.9625L16.3174 19.1375C16.47 18.9619 16.5773 18.7516 16.6299 18.525C19.1349 19.072 21.3778 20.4583 22.9873 22.4542C24.5968 24.4501 25.4762 26.936 25.4799 29.5V33.25H27.9799V29.5C27.9755 26.4153 26.934 23.4216 25.0228 21.0003C23.1116 18.579 20.4417 16.8707 17.4424 16.15ZM9.22986 8.25C9.22986 6.92392 9.75664 5.65215 10.6943 4.71447C11.632 3.77678 12.9038 3.25 14.2299 3.25C15.5559 3.25 16.8277 3.77678 17.7654 4.71447C18.7031 5.65215 19.2299 6.92392 19.2299 8.25C19.2299 11.7 16.9924 14.5 14.2299 14.5C11.4674 14.5 9.22986 11.7 9.22986 8.25Z" fill="#1E1E1E"/>
</svg>
