<svg width="40" height="41" viewBox="0 0 40 41" fill="none" xmlns="http://www.w3.org/2000/svg">
<path opacity="0.5" d="M20 37.1667C21.9698 37.1667 23.9204 36.7788 25.7403 36.0249C27.5601 35.2711 29.2137 34.1662 30.6066 32.7733C31.9995 31.3805 33.1044 29.7269 33.8582 27.907C34.612 26.0871 35 24.1366 35 22.1667C35 20.1969 34.612 18.2464 33.8582 16.4265C33.1044 14.6066 31.9995 12.953 30.6066 11.5601C29.2137 10.1673 27.5601 9.06238 25.7403 8.30856C23.9204 7.55473 21.9698 7.16675 20 7.16675C16.0218 7.16675 12.2064 8.7471 9.3934 11.5601C6.58035 14.3732 5 18.1885 5 22.1667C5 26.145 6.58035 29.9603 9.3934 32.7733C12.2064 35.5864 16.0218 37.1667 20 37.1667Z" fill="white"/>
<path d="M21.71 17.6251C21.2837 17.3289 20.8479 17.0465 20.4034 16.7784C18.615 15.6917 17.7217 15.1484 16.92 15.7501C16.12 16.3501 16.0467 17.6101 15.9 20.1301C15.86 20.8417 15.8334 21.5401 15.8334 22.1667C15.8334 22.7934 15.86 23.4917 15.9 24.2034C16.0467 26.7234 16.12 27.9817 16.92 28.5834C17.7217 29.1851 18.6167 28.6417 20.4034 27.5551C20.8667 27.2734 21.315 26.9867 21.71 26.7084C22.16 26.3917 22.6517 26.0117 23.1467 25.6084C24.9384 24.1467 25.8334 23.4167 25.8334 22.1667C25.8334 20.9167 24.9384 20.1867 23.1467 18.7251C22.6517 18.3217 22.1617 17.9417 21.71 17.6251Z" fill="white"/>
<path fill-rule="evenodd" clip-rule="evenodd" d="M13.7333 4.40008C13.8179 4.5342 13.8749 4.68376 13.9012 4.84009C13.9275 4.99642 13.9226 5.15642 13.8866 5.31082C13.8506 5.46521 13.7844 5.61094 13.6917 5.73955C13.599 5.86817 13.4818 5.97711 13.3467 6.06008L6.86167 10.0767C6.58799 10.2464 6.25847 10.3012 5.9446 10.2295C5.63072 10.1577 5.35779 9.9651 5.185 9.69341C5.10048 9.55929 5.04342 9.40974 5.01711 9.25341C4.9908 9.09707 4.99577 8.93708 5.03173 8.78268C5.0677 8.62828 5.13394 8.48256 5.22662 8.35394C5.3193 8.22533 5.43658 8.11638 5.57167 8.03341L12.0583 4.01675C12.332 3.84714 12.6615 3.79227 12.9754 3.86403C13.2893 3.93579 13.5622 4.1284 13.735 4.40008M26.2667 4.40008C26.4394 4.12885 26.7121 3.93657 27.0255 3.86483C27.339 3.79309 27.6681 3.84766 27.9417 4.01675L34.4283 8.03341C34.5634 8.11638 34.6807 8.22533 34.7734 8.35394C34.8661 8.48256 34.9323 8.62828 34.9683 8.78268C35.0042 8.93708 35.0092 9.09707 34.9829 9.25341C34.9566 9.40974 34.8995 9.55929 34.815 9.69341C34.6422 9.9651 34.3693 10.1577 34.0554 10.2295C33.7415 10.3012 33.412 10.2464 33.1383 10.0767L26.6533 6.06008C26.5181 5.97725 26.4007 5.8684 26.3078 5.73985C26.215 5.6113 26.1486 5.4656 26.1125 5.31119C26.0763 5.15678 26.0712 4.99674 26.0974 4.84034C26.1236 4.68395 26.1806 4.5343 26.265 4.40008" fill="white"/>
</svg>
