<svg width="10" height="25" viewBox="0 0 10 25" fill="none" xmlns="http://www.w3.org/2000/svg">
<path d="M8.01844 0.494722L0.25347 11.5765C0.161304 11.7084 0.0958668 11.8514 0.0571572 12.0053C0.0184475 12.1592 -0.000600037 12.3241 1.44009e-05 12.5C1.44009e-05 12.6759 0.0193692 12.8408 0.0580788 12.9947C0.0967884 13.1486 0.161919 13.2916 0.25347 13.4235L8.01844 24.5383C8.23349 24.8461 8.50231 25 8.82489 25C9.14747 25 9.42396 24.8351 9.65438 24.5053C9.88479 24.1755 10 23.7907 10 23.3509C10 22.9112 9.88479 22.5264 9.65438 22.1966L2.88019 12.5L9.65438 2.80343C9.86943 2.4956 9.97696 2.1161 9.97696 1.66491C9.97696 1.21372 9.86175 0.823658 9.63134 0.494722C9.40092 0.164907 9.13211 -4.17232e-07 8.82489 -4.17232e-07C8.51767 -4.17232e-07 8.24885 0.164907 8.01844 0.494722Z" fill="black"/>
</svg>
