<svg width="50" height="50" viewBox="0 0 50 50" fill="none" xmlns="http://www.w3.org/2000/svg">
<circle cx="25" cy="25" r="25" fill="white"/>
<path d="M14.0184 12.4947L6.25347 23.5765C6.1613 23.7084 6.09587 23.8514 6.05716 24.0053C6.01845 24.1592 5.9994 24.3241 6.00001 24.5C6.00001 24.6759 6.01937 24.8408 6.05808 24.9947C6.09679 25.1486 6.16192 25.2916 6.25347 25.4235L14.0184 36.5383C14.2335 36.8461 14.5023 37 14.8249 37C15.1475 37 15.424 36.8351 15.6544 36.5053C15.8848 36.1755 16 35.7907 16 35.3509C16 34.9112 15.8848 34.5264 15.6544 34.1966L8.88019 24.5L15.6544 14.8034C15.8694 14.4956 15.977 14.1161 15.977 13.6649C15.977 13.2137 15.8618 12.8237 15.6313 12.4947C15.4009 12.1649 15.1321 12 14.8249 12C14.5177 12 14.2489 12.1649 14.0184 12.4947Z" fill="black"/>
</svg>
