<svg width="28" height="27" viewBox="0 0 28 27" fill="none" xmlns="http://www.w3.org/2000/svg">
<path d="M26.5456 12.5237L2.48309 0.492466C2.29449 0.398148 2.08266 0.360357 1.87308 0.383643C1.66351 0.40693 1.46513 0.4903 1.30184 0.623716C1.1459 0.754411 1.0295 0.926014 0.96574 1.11923C0.901978 1.31245 0.893376 1.51963 0.940901 1.71747L3.83934 12.4034H16.2097V14.5909H3.83934L0.897151 25.244C0.852555 25.4092 0.84735 25.5826 0.881953 25.7502C0.916556 25.9178 0.990003 26.0749 1.09639 26.209C1.20277 26.343 1.33913 26.4502 1.49448 26.522C1.64984 26.5938 1.81987 26.6281 1.9909 26.6222C2.16212 26.6211 2.33071 26.5799 2.48309 26.5018L26.5456 14.4706C26.7247 14.3788 26.8751 14.2394 26.9801 14.0676C27.0851 13.8959 27.1406 13.6985 27.1406 13.4972C27.1406 13.2959 27.0851 13.0985 26.9801 12.9267C26.8751 12.7549 26.7247 12.6155 26.5456 12.5237Z" fill="white"/>
</svg>
