<svg width="20" height="6" viewBox="0 0 20 6" fill="none" xmlns="http://www.w3.org/2000/svg">
<path fill-rule="evenodd" clip-rule="evenodd" d="M0.25 3C0.25 2.27065 0.539731 1.57118 1.05546 1.05546C1.57118 0.539731 2.27065 0.25 3 0.25C3.72935 0.25 4.42882 0.539731 4.94454 1.05546C5.46027 1.57118 5.75 2.27065 5.75 3C5.75 3.72935 5.46027 4.42882 4.94454 4.94454C4.42882 5.46027 3.72935 5.75 3 5.75C2.27065 5.75 1.57118 5.46027 1.05546 4.94454C0.539731 4.42882 0.25 3.72935 0.25 3ZM3 1.75C2.66848 1.75 2.35054 1.8817 2.11612 2.11612C1.8817 2.35054 1.75 2.66848 1.75 3C1.75 3.33152 1.8817 3.64946 2.11612 3.88388C2.35054 4.1183 2.66848 4.25 3 4.25C3.33152 4.25 3.64946 4.1183 3.88388 3.88388C4.1183 3.64946 4.25 3.33152 4.25 3C4.25 2.66848 4.1183 2.35054 3.88388 2.11612C3.64946 1.8817 3.33152 1.75 3 1.75ZM7.25 3C7.25 2.27065 7.53973 1.57118 8.05546 1.05546C8.57118 0.539731 9.27065 0.25 10 0.25C10.7293 0.25 11.4288 0.539731 11.9445 1.05546C12.4603 1.57118 12.75 2.27065 12.75 3C12.75 3.72935 12.4603 4.42882 11.9445 4.94454C11.4288 5.46027 10.7293 5.75 10 5.75C9.27065 5.75 8.57118 5.46027 8.05546 4.94454C7.53973 4.42882 7.25 3.72935 7.25 3ZM10 1.75C9.66848 1.75 9.35054 1.8817 9.11612 2.11612C8.8817 2.35054 8.75 2.66848 8.75 3C8.75 3.33152 8.8817 3.64946 9.11612 3.88388C9.35054 4.1183 9.66848 4.25 10 4.25C10.3315 4.25 10.6495 4.1183 10.8839 3.88388C11.1183 3.64946 11.25 3.33152 11.25 3C11.25 2.66848 11.1183 2.35054 10.8839 2.11612C10.6495 1.8817 10.3315 1.75 10 1.75ZM17 0.25C16.2707 0.25 15.5712 0.539731 15.0555 1.05546C14.5397 1.57118 14.25 2.27065 14.25 3C14.25 3.72935 14.5397 4.42882 15.0555 4.94454C15.5712 5.46027 16.2707 5.75 17 5.75C17.7293 5.75 18.4288 5.46027 18.9445 4.94454C19.4603 4.42882 19.75 3.72935 19.75 3C19.75 2.27065 19.4603 1.57118 18.9445 1.05546C18.4288 0.539731 17.7293 0.25 17 0.25ZM15.75 3C15.75 2.83585 15.7823 2.6733 15.8451 2.52165C15.908 2.36999 16 2.23219 16.1161 2.11612C16.2322 2.00004 16.37 1.90797 16.5216 1.84515C16.6733 1.78233 16.8358 1.75 17 1.75C17.1642 1.75 17.3267 1.78233 17.4784 1.84515C17.63 1.90797 17.7678 2.00004 17.8839 2.11612C18 2.23219 18.092 2.36999 18.1549 2.52165C18.2177 2.6733 18.25 2.83585 18.25 3C18.25 3.33152 18.1183 3.64946 17.8839 3.88388C17.6495 4.1183 17.3315 4.25 17 4.25C16.6685 4.25 16.3505 4.1183 16.1161 3.88388C15.8817 3.64946 15.75 3.33152 15.75 3Z" fill="black"/>
</svg>
