<svg width="20" height="21" viewBox="0 0 20 21" fill="none" xmlns="http://www.w3.org/2000/svg">
<g clip-path="url(#clip0_10_1418)">
<path d="M14.8219 7.70154C16.2811 8.62189 18.0687 9.16341 19.9994 9.16341V5.88547C19.634 5.88554 19.2696 5.85189 18.9121 5.78506V8.36527C16.9815 8.36527 15.1941 7.82382 13.7346 6.90354V13.5929C13.7346 16.9393 10.6599 19.6519 6.8674 19.6519C5.45232 19.6519 4.13701 19.2744 3.04443 18.6271C4.29146 19.7521 6.03053 20.45 7.95443 20.45C11.7472 20.45 14.822 17.7374 14.822 14.3909V7.70154H14.8219ZM16.1633 4.39451C15.4175 3.67568 14.9278 2.74672 14.8219 1.71968V1.2981H13.7915C14.0508 2.60341 14.9356 3.71858 16.1633 4.39451ZM5.44318 16.0592C5.02653 15.5772 4.80131 14.9875 4.80232 14.3813C4.80232 12.8508 6.20865 11.6098 7.94373 11.6098C8.26703 11.6097 8.58842 11.6535 8.89662 11.7397V8.38844C8.53646 8.34492 8.17303 8.32637 7.80975 8.3332V10.9416C7.50141 10.8553 7.17984 10.8116 6.85639 10.8118C5.12139 10.8118 3.71514 12.0526 3.71514 13.5833C3.71514 14.6657 4.41803 15.6027 5.44318 16.0592Z" fill="#FF004F"/>
<path d="M13.7346 6.90347C15.1942 7.82375 16.9815 8.3652 18.9121 8.3652V5.78499C17.8345 5.58244 16.8805 5.08561 16.1632 4.39451C14.9355 3.71851 14.0509 2.60334 13.7915 1.2981H11.085V14.3907C11.0788 15.9171 9.67494 17.1529 7.94361 17.1529C6.92345 17.1529 6.01705 16.7239 5.44306 16.0591C4.41806 15.6027 3.71509 14.6656 3.71509 13.5834C3.71509 12.0529 5.12134 10.8119 6.85634 10.8119C7.18876 10.8119 7.50916 10.8575 7.8097 10.9417V8.33327C4.08376 8.4012 1.08728 11.0873 1.08728 14.3908C1.08728 16.0399 1.83345 17.5349 3.04455 18.6272C4.13712 19.2744 5.45236 19.652 6.86751 19.652C10.6601 19.652 13.7347 16.9393 13.7347 13.5929L13.7346 6.90347Z" fill="black"/>
<path d="M18.9121 5.78483V5.08731C17.9403 5.08861 16.9877 4.84849 16.1632 4.39441C16.893 5.09939 17.8541 5.58554 18.9121 5.78497M13.7914 1.29793C13.7667 1.17321 13.7477 1.04766 13.7345 0.921586V0.5H9.9975V13.5928C9.99156 15.119 8.58766 16.3548 6.85625 16.3548C6.36541 16.3555 5.88128 16.2542 5.44297 16.0592C6.01695 16.7238 6.92336 17.1528 7.94352 17.1528C9.67477 17.1528 11.0788 15.917 11.0849 14.3907V1.298L13.7914 1.29793ZM7.80984 8.3331V7.59041C7.49757 7.55273 7.18275 7.53389 6.86758 7.534C3.07461 7.534 0 10.2467 0 13.5928C0 15.6906 1.20836 17.5394 3.04461 18.627C1.83352 17.5347 1.08734 16.0397 1.08734 14.3906C1.08734 11.0872 4.08375 8.40103 7.80984 8.3331Z" fill="#00F2EA"/>
</g>
<defs>
<clipPath id="clip0_10_1418">
<rect width="20" height="20" fill="white" transform="translate(0 0.5)"/>
</clipPath>
</defs>
</svg>
