<svg width="30" height="27" viewBox="0 0 30 27" fill="none" xmlns="http://www.w3.org/2000/svg">
<path d="M4.5 11.875C6.15469 11.875 7.5 10.4176 7.5 8.625C7.5 6.83242 6.15469 5.375 4.5 5.375C2.84531 5.375 1.5 6.83242 1.5 8.625C1.5 10.4176 2.84531 11.875 4.5 11.875ZM25.5 11.875C27.1547 11.875 28.5 10.4176 28.5 8.625C28.5 6.83242 27.1547 5.375 25.5 5.375C23.8453 5.375 22.5 6.83242 22.5 8.625C22.5 10.4176 23.8453 11.875 25.5 11.875ZM27 13.5H24C23.175 13.5 22.4297 13.8605 21.8859 14.4445C23.775 15.5668 25.1156 17.593 25.4062 20H28.5C29.3297 20 30 19.2738 30 18.375V16.75C30 14.9574 28.6547 13.5 27 13.5ZM15 13.5C17.9016 13.5 20.25 10.9559 20.25 7.8125C20.25 4.66914 17.9016 2.125 15 2.125C12.0984 2.125 9.75 4.66914 9.75 7.8125C9.75 10.9559 12.0984 13.5 15 13.5ZM18.6 15.125H18.2109C17.2359 15.6328 16.1531 15.9375 15 15.9375C13.8469 15.9375 12.7688 15.6328 11.7891 15.125H11.4C8.41875 15.125 6 17.7453 6 20.975V22.4375C6 23.7832 7.00781 24.875 8.25 24.875H21.75C22.9922 24.875 24 23.7832 24 22.4375V20.975C24 17.7453 21.5812 15.125 18.6 15.125ZM8.11406 14.4445C7.57031 13.8605 6.825 13.5 6 13.5H3C1.34531 13.5 0 14.9574 0 16.75V18.375C0 19.2738 0.670312 20 1.5 20H4.58906C4.88438 17.593 6.225 15.5668 8.11406 14.4445Z" fill="#F49406"/>
</svg>
