<svg width="29" height="23" viewBox="0 0 29 23" fill="none" xmlns="http://www.w3.org/2000/svg">
<path d="M23.5632 0.666626H5.22986C2.47319 0.666626 0.229858 2.90996 0.229858 5.66663V17.3333C0.229858 20.09 2.47319 22.3333 5.22986 22.3333H23.5632C26.3199 22.3333 28.5632 20.09 28.5632 17.3333V5.66663C28.5632 2.90996 26.3199 0.666626 23.5632 0.666626ZM25.2299 17.3333C25.2299 18.2533 24.4832 19 23.5632 19H5.22986C4.30986 19 3.56319 18.2533 3.56319 17.3333V10.6666H25.2299V17.3333ZM25.2299 7.33329H3.56319V5.66663C3.56319 4.74663 4.30986 3.99996 5.22986 3.99996H23.5632C24.4832 3.99996 25.2299 4.74663 25.2299 5.66663V7.33329Z" fill="#1E1E1E"/>
<path d="M18.5632 15.6667H21.8965C22.3565 15.6667 22.7299 15.2933 22.7299 14.8333C22.7299 14.3733 22.3565 14 21.8965 14H18.5632C18.1032 14 17.7299 14.3733 17.7299 14.8333C17.7299 15.2933 18.1032 15.6667 18.5632 15.6667Z" fill="#1E1E1E"/>
</svg>
