<svg width="30" height="31" viewBox="0 0 30 31" fill="none" xmlns="http://www.w3.org/2000/svg">
<g clip-path="url(#clip0_352_105)">
<path d="M0.640196 15.3204C0.639493 17.841 1.30324 20.3021 2.56535 22.4714L0.519493 29.8833L8.16387 27.8944C10.2782 29.0365 12.6472 29.635 15.0545 29.6351H15.0608C23.0079 29.6351 29.477 23.2185 29.4804 15.3316C29.4819 11.5099 27.9833 7.91618 25.2606 5.21246C22.5383 2.50897 18.9178 1.01932 15.0602 1.01758C7.11223 1.01758 0.643595 7.43386 0.640313 15.3204" fill="url(#paint0_linear_352_105)"/>
<path d="M0.125391 15.3158C0.12457 17.9271 0.812109 20.4763 2.11922 22.7233L0 30.4008L7.91848 28.3407C10.1003 29.521 12.5568 30.1434 15.0564 30.1443H15.0628C23.295 30.1443 29.9965 23.4969 30 15.3277C30.0014 11.3686 28.4489 7.6457 25.6289 4.84512C22.8086 2.04488 19.0586 0.501628 15.0628 0.5C6.82922 0.5 0.128672 7.14651 0.125391 15.3158ZM4.84113 22.3363L4.54547 21.8706C3.30258 19.9097 2.64656 17.6436 2.6475 15.3167C2.65008 8.52663 8.2193 3.00233 15.0675 3.00233C18.3839 3.00372 21.5006 4.28651 23.8448 6.61395C26.1889 8.94163 27.4788 12.0358 27.478 15.3267C27.475 22.1169 21.9056 27.6419 15.0628 27.6419H15.0579C12.8298 27.6407 10.6446 27.047 8.73891 25.925L8.28539 25.6581L3.58641 26.8806L4.84113 22.3363Z" fill="url(#paint1_linear_352_105)"/>
<path d="M11.3295 9.12189C11.0498 8.50526 10.7556 8.49282 10.4897 8.482C10.272 8.4727 10.023 8.4734 9.77437 8.4734C9.52547 8.4734 9.12105 8.56631 8.77922 8.93666C8.43703 9.30735 7.47281 10.2032 7.47281 12.0251C7.47281 13.8472 8.81027 15.6081 8.99672 15.8554C9.1834 16.1022 11.5787 19.9608 15.3723 21.4453C18.5251 22.6789 19.1667 22.4335 19.851 22.3717C20.5354 22.31 22.0593 21.4761 22.3702 20.6113C22.6813 19.7467 22.6813 19.0055 22.588 18.8506C22.4947 18.6963 22.2458 18.6036 21.8726 18.4185C21.4992 18.2333 19.6643 17.3374 19.3222 17.2137C18.98 17.0903 18.7313 17.0286 18.4823 17.3994C18.2334 17.7697 17.5187 18.6036 17.3009 18.8506C17.0832 19.0982 16.8654 19.129 16.4923 18.9437C16.1188 18.7579 14.9168 18.3674 13.4907 17.1058C12.3812 16.1242 11.6321 14.912 11.4144 14.5412C11.1967 14.171 11.3911 13.9703 11.5782 13.7857C11.7459 13.6198 11.9516 13.3533 12.1384 13.1371C12.3245 12.9208 12.3866 12.7665 12.5111 12.5196C12.6356 12.2724 12.5733 12.0561 12.4801 11.8708C12.3866 11.6856 11.6613 9.8541 11.3295 9.12189Z" fill="white"/>
</g>
<defs>
<linearGradient id="paint0_linear_352_105" x1="1448.56" y1="2887.59" x2="1448.56" y2="1.01758" gradientUnits="userSpaceOnUse">
<stop stop-color="#20B486"/>
<stop offset="1" stop-color="#20B486"/>
</linearGradient>
<linearGradient id="paint1_linear_352_105" x1="1500" y1="2990.58" x2="1500" y2="0.5" gradientUnits="userSpaceOnUse">
<stop stop-color="#F9F9F9"/>
<stop offset="1" stop-color="white"/>
</linearGradient>
<clipPath id="clip0_352_105">
<rect width="30" height="30" fill="white" transform="translate(0 0.5)"/>
</clipPath>
</defs>
</svg>
