<svg width="387" height="414" viewBox="0 0 387 414" fill="none" xmlns="http://www.w3.org/2000/svg">
<path d="M268.406 207C268.406 251.492 234.738 287.5 193.276 287.5C151.815 287.5 118.146 251.492 118.146 207C118.146 162.508 151.815 126.5 193.276 126.5C234.738 126.5 268.406 162.508 268.406 207Z" stroke="#20B486" stroke-opacity="0.25"/>
<path d="M316.959 207.5C316.959 280.434 261.761 339.5 193.743 339.5C125.725 339.5 70.5276 280.434 70.5276 207.5C70.5276 134.566 125.725 75.5 193.743 75.5C261.761 75.5 316.959 134.566 316.959 207.5Z" stroke="#20B486" stroke-opacity="0.25"/>
<path d="M353.373 207C353.373 301.75 281.663 378.5 193.276 378.5C104.889 378.5 33.1796 301.75 33.1796 207C33.1796 112.25 104.889 35.5 193.276 35.5C281.663 35.5 353.373 112.25 353.373 207Z" stroke="#20B486" stroke-opacity="0.25"/>
<path d="M386.052 207C386.052 321.08 299.712 413.5 193.276 413.5C86.8406 413.5 0.5 321.08 0.5 207C0.5 92.9203 86.8406 0.5 193.276 0.5C299.712 0.5 386.052 92.9203 386.052 207Z" stroke="#20B486" stroke-opacity="0.25"/>
</svg>
