<svg width="29" height="19" viewBox="0 0 29 19" fill="none" xmlns="http://www.w3.org/2000/svg">
<path d="M11.36 12.42C11.36 13.1533 11.1667 13.8333 10.78 14.46C10.4067 15.0733 9.84667 15.58 9.1 15.98C8.36667 16.3667 7.49333 16.58 6.48 16.62L6.48 18.24L5.2 18.24L5.2 16.6C3.78667 16.48 2.64667 16.06 1.78 15.34C0.913333 14.6067 0.453333 13.6133 0.4 12.36L4.04 12.36C4.12 13.16 4.50667 13.6733 5.2 13.9L5.2 10.74C4.16 10.4733 3.32667 10.2133 2.7 9.96C2.08667 9.70667 1.54667 9.3 1.08 8.74C0.613333 8.18 0.38 7.41333 0.38 6.44C0.38 5.22667 0.826667 4.25333 1.72 3.52C2.62667 2.78667 3.78667 2.37333 5.2 2.28L5.2 0.659999L6.48 0.659999L6.48 2.28C7.88 2.38667 8.98667 2.79333 9.8 3.5C10.6133 4.20667 11.0667 5.18667 11.16 6.44L7.5 6.44C7.42 5.72 7.08 5.25333 6.48 5.04L6.48 8.14C7.58667 8.44667 8.44 8.72 9.04 8.96C9.64 9.2 10.1733 9.6 10.64 10.16C11.12 10.7067 11.36 11.46 11.36 12.42ZM4 6.28C4 6.61333 4.1 6.89333 4.3 7.12C4.51333 7.34667 4.81333 7.54667 5.2 7.72L5.2 4.94C4.82667 5.00667 4.53333 5.15333 4.32 5.38C4.10667 5.59333 4 5.89333 4 6.28ZM6.48 13.96C6.88 13.8933 7.19333 13.7333 7.42 13.48C7.66 13.2267 7.78 12.9133 7.78 12.54C7.78 12.1933 7.66667 11.9133 7.44 11.7C7.22667 11.4733 6.90667 11.28 6.48 11.12L6.48 13.96ZM28.0823 4.88L21.8423 4.88L21.8423 7.64C22.109 7.34667 22.4823 7.10667 22.9623 6.92C23.4423 6.73333 23.9623 6.64 24.5223 6.64C25.5223 6.64 26.349 6.86667 27.0023 7.32C27.669 7.77333 28.1557 8.36 28.4623 9.08C28.769 9.8 28.9223 10.58 28.9223 11.42C28.9223 12.98 28.4823 14.22 27.6023 15.14C26.7223 16.0467 25.4823 16.5 23.8823 16.5C22.8157 16.5 21.889 16.32 21.1023 15.96C20.3157 15.5867 19.709 15.0733 19.2823 14.42C18.8557 13.7667 18.6223 13.0133 18.5823 12.16L21.9223 12.16C22.0023 12.5733 22.1957 12.92 22.5023 13.2C22.809 13.4667 23.229 13.6 23.7623 13.6C24.389 13.6 24.8557 13.4 25.1623 13C25.469 12.6 25.6223 12.0667 25.6223 11.4C25.6223 10.7467 25.4623 10.2467 25.1423 9.9C24.8223 9.55333 24.3557 9.38 23.7423 9.38C23.289 9.38 22.9157 9.49333 22.6223 9.72C22.329 9.93333 22.1357 10.22 22.0423 10.58L18.7423 10.58L18.7423 1.88L28.0823 1.88L28.0823 4.88Z" fill="#24D198"/>
</svg>
