<svg width="757" height="795" viewBox="0 0 757 795" fill="none" xmlns="http://www.w3.org/2000/svg">
<path d="M420.876 239.521L459.282 360.983L445.579 347.338C450.645 349.676 456.526 351.47 463.01 352.719C469.494 353.99 476.582 354.717 483.985 355.034C491.388 355.375 499.106 355.307 507.007 355.034C514.909 354.739 522.969 354.24 531.159 353.627H531.212C543.287 352.741 553.919 360.483 554.943 370.927C555.914 380.893 547.75 389.702 536.541 391.291C528.088 392.449 519.503 393.562 510.709 394.447C501.888 395.333 492.858 395.991 483.512 396.173C474.167 396.354 464.48 396.036 454.452 394.788C444.45 393.539 434.08 391.269 423.947 387.5C417.463 385.071 412.843 380.485 410.743 375.104L410.244 373.833L364.172 254.391C359.001 240.974 367.375 226.443 382.916 221.971C398.431 217.498 415.232 224.741 420.403 238.181C420.587 238.59 420.744 239.089 420.876 239.521Z" fill="#EA9B7A"/>
<path d="M435.682 679.804C435.104 679.804 434.527 679.713 433.949 679.532L232.756 616.803C230.131 615.985 228.74 613.465 229.711 611.195C230.656 608.925 233.57 607.721 236.195 608.561L437.388 671.29C440.013 672.108 441.405 674.628 440.433 676.898C439.698 678.692 437.756 679.804 435.682 679.804Z" fill="#C77E2E"/>
<path d="M226.114 679.804C224.041 679.804 222.098 678.692 221.337 676.898C220.392 674.628 221.757 672.108 224.382 671.268L427.964 607.494C430.589 606.677 433.503 607.857 434.474 610.128C435.419 612.398 434.054 614.918 431.429 615.758L227.847 679.532C227.27 679.736 226.692 679.804 226.114 679.804Z" fill="#C77E2E"/>
<path d="M453.559 791.935C449.28 791.935 445.552 789.188 444.949 785.419L408.616 550.736H256.567L220.786 785.397C220.156 789.506 215.798 792.412 211.046 791.867C206.295 791.322 202.934 787.553 203.564 783.444L240.343 542.268C240.921 538.522 244.596 535.729 248.954 535.729H416.256C420.613 535.729 424.289 538.522 424.866 542.245L462.222 783.421C462.852 787.531 459.518 791.322 454.767 791.867C454.347 791.912 453.953 791.935 453.559 791.935Z" fill="#FAAF3A"/>
<path d="M367.769 543.244H259.139C224.723 543.244 187.866 526.943 182.563 497.543C175.501 458.198 173.742 420.125 175.711 385.162C177.943 345.635 199.784 308.856 235.696 284.337C235.696 284.337 257.407 366.136 230.105 479.039C240.553 521.903 367.769 543.244 367.769 543.244Z" fill="#FAAF3A"/>
<path d="M345.14 63.4798C345.14 63.4798 332.224 36.5538 298.018 41.6393C274.129 45.181 263.943 70.9264 265.334 110.702C267.382 168.573 244.753 203.445 244.753 203.445L274.785 209.348C274.811 209.348 351.282 110.135 345.14 63.4798Z" fill="#1E1E1E"/>
<path d="M619.155 691.383H570.615C570.615 691.383 559.38 644.796 555.626 618.687C551.845 592.555 549.903 530.644 549.903 530.644C549.903 530.644 511.234 541.519 430.274 537.409C250.896 528.351 318.914 414.381 318.914 414.381C324.978 421.623 362.098 416.606 387.484 420.056C465.372 426.527 532.892 452.953 573.424 468.074C583.19 471.706 591.853 475.566 599.466 479.63C609.232 484.829 615.348 500.653 619.05 521.426C630.102 583.883 619.155 691.383 619.155 691.383Z" fill="#1E1E1E"/>
<path d="M576.627 668.929C575.813 668.929 575.104 668.43 574.921 667.726C567.911 637.758 565.575 600.456 563.685 570.488C562.11 545.628 560.64 522.153 556.938 519.338C553.946 517.045 541.528 518.838 525.83 521.086C494.564 525.581 447.311 532.347 395.228 521.88C366.85 516.159 345.98 504.24 333.221 486.441C311.196 455.746 321.251 417.673 321.356 417.287C321.566 416.469 322.511 415.97 323.456 416.174C324.401 416.356 324.978 417.173 324.742 417.991C324.637 418.354 314.95 455.247 336.214 484.874C348.474 501.97 368.609 513.435 396.042 518.952C447.469 529.304 494.302 522.584 525.305 518.134C543.865 515.478 555.074 513.866 559.301 517.09C563.869 520.586 565.155 537.75 567.203 570.329C569.093 600.207 571.429 637.372 578.386 667.136C578.57 667.953 577.966 668.748 577.021 668.906C576.863 668.906 576.758 668.929 576.627 668.929Z" fill="#585859"/>
<path d="M620.074 669.724H620.047L566.074 668.725C565.103 668.702 564.341 668.021 564.367 667.181C564.394 666.341 565.181 665.682 566.153 665.705L620.126 666.704C621.097 666.727 621.859 667.408 621.832 668.248C621.78 669.065 621.019 669.724 620.074 669.724Z" fill="#585859"/>
<path d="M617.816 745.144H583.557L576.968 710.385L573.345 691.382H615.899L616.582 710.385L617.816 745.144Z" fill="#EA9B7A"/>
<path d="M617.816 745.144H583.557L578.648 719.262L576.968 710.385H616.582L616.897 719.603L617.816 745.144Z" fill="#FAAF3A"/>
<path d="M616.897 719.603L578.648 719.262L576.968 710.385H616.582L616.897 719.603Z" fill="#C77E2E"/>
<path d="M702.346 791.935H572.794C571.823 790.414 571.298 788.28 571.088 785.714C570.274 776.224 573.765 761.104 575.472 751.569C575.682 750.456 575.866 749.412 575.997 748.481C576.233 746.892 576.391 745.552 576.391 744.576C576.391 736.789 584.345 738.128 584.345 738.128C597.445 749.253 612.303 732.566 620.966 738.038C620.966 738.038 621.307 738.265 622.121 738.787C622.856 739.286 623.959 740.058 625.481 741.171C627.686 742.76 630.784 745.076 634.984 748.345C645.275 756.359 662.759 761.626 677.643 767.007C679.534 767.688 681.292 768.392 682.946 769.073C684.18 769.595 685.361 770.117 686.464 770.617C698.645 776.293 702.504 781.741 703.396 785.692C704.236 789.506 702.346 791.935 702.346 791.935Z" fill="#0875F7"/>
<path d="M686.464 770.639C683.13 772.932 675.701 777.541 669.742 777.541C669.479 777.541 669.217 777.541 668.954 777.518C664.754 777.223 649.318 770.662 636.743 764.691C629.55 761.263 622.961 757.903 618.236 755.201C610.492 750.774 609.127 749.094 608.838 747.913C607.709 743.486 616.162 740.421 622.095 738.809C622.83 739.309 623.933 740.081 625.455 741.193C618.105 742.919 612.041 745.643 612.329 747.21C613.064 748.526 620.73 753.567 639.054 762.262C653.046 768.891 666.303 774.226 669.243 774.454C673.233 774.726 679.087 771.593 682.92 769.118C684.206 769.595 685.361 770.117 686.464 770.639Z" fill="#084FC7"/>
<path d="M702.346 791.935H572.794C571.823 790.414 571.298 788.28 571.088 785.714H703.423C704.236 789.506 702.346 791.935 702.346 791.935Z" fill="#084FC7"/>
<path d="M585.999 791.935H582.14C585.973 788.144 589.569 782.309 589.097 773.999C588.467 762.92 580.801 755.474 575.446 751.569C575.656 750.456 575.839 749.412 575.971 748.481C581.72 752.273 591.407 760.605 592.168 773.863C592.641 781.809 589.622 787.735 585.999 791.935Z" fill="#084FC7"/>
<path d="M632.779 754.974C631.834 754.974 630.942 754.407 630.705 753.567C630.417 752.568 631.125 751.569 632.254 751.319L640.34 749.571C641.495 749.321 642.65 749.934 642.939 750.91C643.227 751.909 642.519 752.908 641.39 753.158L633.304 754.906C633.147 754.952 632.963 754.974 632.779 754.974Z" fill="white"/>
<path d="M624.746 749.139C623.801 749.139 622.909 748.572 622.672 747.732C622.384 746.733 623.092 745.734 624.221 745.484L632.307 743.736C633.462 743.486 634.617 744.099 634.906 745.075C635.194 746.074 634.486 747.073 633.357 747.3L625.271 749.049C625.088 749.117 624.93 749.139 624.746 749.139Z" fill="white"/>
<path d="M640.891 759.038C639.946 759.038 639.053 758.47 638.817 757.63C638.528 756.632 639.237 755.633 640.366 755.406L648.452 753.657C649.607 753.408 650.762 754.021 651.05 754.997C651.339 755.996 650.63 756.995 649.502 757.245L641.416 758.993C641.232 759.015 641.049 759.038 640.891 759.038Z" fill="white"/>
<path d="M648.977 762.943C648.031 762.943 647.139 762.375 646.903 761.535C646.614 760.536 647.323 759.538 648.452 759.288L656.537 757.54C657.692 757.29 658.847 757.903 659.136 758.879C659.425 759.878 658.716 760.877 657.587 761.104L649.502 762.852C649.318 762.943 649.16 762.943 648.977 762.943Z" fill="white"/>
<path d="M657.797 766.576C656.852 766.576 655.959 766.008 655.723 765.168C655.434 764.169 656.143 763.17 657.272 762.943L665.358 761.195C666.513 760.945 667.668 761.558 667.957 762.534C668.245 763.533 667.536 764.532 666.408 764.782L658.322 766.53C658.138 766.553 657.981 766.576 657.797 766.576Z" fill="white"/>
<path d="M667.379 769.663C666.434 769.663 665.541 769.096 665.305 768.256C665.016 767.257 665.725 766.258 666.854 766.008L674.939 764.26C676.095 764.01 677.25 764.623 677.538 765.599C677.827 766.598 677.118 767.597 675.99 767.824L667.904 769.572C667.72 769.64 667.536 769.663 667.379 769.663Z" fill="white"/>
<path d="M229.081 378.214C229.081 378.214 227.559 387.273 241.577 389.816L387.746 394.039C387.746 394.039 397.617 389.748 395.832 379.168C395.806 379.145 334.088 349.177 229.081 378.214Z" fill="#084FC7"/>
<path d="M389.715 420.034C313.848 456.132 230.997 427.072 230.997 427.072C235.04 417.514 238.059 406.73 240.238 396.922C242.758 385.502 244.176 375.422 244.832 370.132C277.095 368.611 356.218 365.682 387.221 372.039L387.458 382.778L389.715 420.034Z" fill="#EA9B7A"/>
<path d="M333.668 402.711C333.117 406.094 331.331 408.682 329.73 408.478C328.103 408.273 327.262 405.367 327.814 401.985C328.365 398.602 330.15 396.014 331.752 396.218C333.379 396.422 334.245 399.328 333.668 402.711Z" fill="#D96C63"/>
<path d="M387.458 382.778C355.142 381.075 291.587 380.485 240.238 396.899C242.758 385.479 244.176 375.399 244.832 370.109C277.096 368.588 356.218 365.66 387.221 372.016L387.458 382.778Z" fill="#D96C63"/>
<path d="M423.501 330.855C423.186 331.673 422.819 332.422 422.425 333.126C422.267 333.398 422.11 333.671 421.952 333.92C417.883 340.436 411.609 346.089 406.333 350.108C405.23 350.948 404.18 351.697 403.209 352.378C401.266 353.74 399.612 354.807 398.483 355.511C397.433 356.147 396.829 356.487 396.829 356.487C396.829 356.556 396.829 356.601 396.803 356.692C396.751 357.169 396.698 357.691 396.646 358.236C396.462 360.302 396.304 362.754 396.199 365.569C396.094 367.816 396.016 370.291 395.963 372.97C395.937 374.945 395.884 377.011 395.858 379.145C352.989 362.572 264.678 373.038 229.107 378.214C229.764 375.558 230.341 372.947 230.893 370.404C233.413 358.667 234.83 348.11 235.382 338.643C236.222 324.567 234.804 303.407 231.339 281.544C231.129 280.114 230.893 278.706 230.656 277.299C230.499 276.368 230.341 275.46 230.157 274.529C228.95 267.672 227.532 260.793 225.931 254.119C218.922 225.013 223.831 194.477 257.958 190.868C260.426 190.595 262.867 190.368 265.256 190.141C281.322 188.665 294.553 188.143 298.228 188.03C298.911 188.007 299.252 188.007 299.252 188.007L365.196 204.58L371.47 206.147C375.067 207.146 378.401 208.122 381.498 209.075C382.811 209.484 384.097 209.893 385.305 210.279C388.508 211.323 391.395 212.322 394.047 213.344C399.323 215.364 403.524 217.339 406.805 219.36C421.27 228.237 419.038 238.272 418.671 258.092C418.671 258.183 418.671 258.273 418.671 258.364C418.671 258.614 418.671 258.864 418.671 259.136C418.671 259.25 418.671 259.363 418.671 259.477C418.671 260.294 418.671 261.089 418.671 261.906C418.697 264.471 418.802 267.014 418.986 269.557C419.222 273.303 419.616 277.026 420.088 280.659C420.272 282.112 420.456 283.565 420.666 285.018C420.85 286.38 421.06 287.719 421.27 289.059C423.816 306.404 427.098 321.593 423.501 330.855Z" fill="#0875F7"/>
<path d="M418.592 258.364C418.592 258.614 418.592 258.864 418.592 259.136C418.592 259.25 418.592 259.363 418.592 259.477C418.592 260.294 418.592 261.089 418.592 261.906L404.731 269.421C404.311 269.648 403.839 269.716 403.366 269.648C402.841 269.58 402.368 269.307 402.053 268.898C401.476 268.104 401.765 267.082 402.657 266.583L417.358 258.614C417.752 258.41 418.172 258.319 418.592 258.364Z" fill="#084FC7"/>
<path d="M327.236 322.546C326.711 322.546 326.186 322.364 325.792 322.001C325.083 321.32 325.136 320.253 325.923 319.64L338.813 309.605C339.601 308.992 340.834 309.038 341.543 309.719C342.252 310.4 342.199 311.467 341.412 312.08L328.522 322.115C328.155 322.41 327.709 322.546 327.236 322.546Z" fill="#084FC7"/>
<path d="M421.165 289.036L412.344 295.915C411.976 296.21 411.504 296.347 411.058 296.347C410.533 296.347 410.008 296.165 409.614 295.802C408.905 295.121 408.957 294.054 409.745 293.441L420.561 285.018C420.771 286.357 420.981 287.719 421.165 289.036Z" fill="#084FC7"/>
<path d="M301.09 282.203C300.801 281.817 300.669 281.34 300.801 280.863C301.037 279.955 302.087 279.41 303.137 279.614L320.017 283.065C321.067 283.27 321.697 284.178 321.461 285.086C321.225 285.994 320.175 286.539 319.124 286.335L302.245 282.884C301.746 282.77 301.352 282.52 301.09 282.203Z" fill="#084FC7"/>
<path d="M240.868 310.854C240.343 310.854 239.818 310.672 239.424 310.309C238.716 309.628 238.768 308.561 239.556 307.948L252.445 297.913C253.233 297.3 254.467 297.346 255.175 298.027C255.884 298.708 255.832 299.775 255.044 300.388L242.154 310.423C241.787 310.695 241.314 310.854 240.868 310.854Z" fill="#084FC7"/>
<path d="M390.923 308.447C391.08 308.016 391.474 307.63 391.973 307.449C392.944 307.085 394.099 307.471 394.519 308.311L401.45 322.069C401.87 322.909 401.423 323.908 400.452 324.272C399.481 324.635 398.326 324.249 397.906 323.409L390.975 309.651C390.791 309.265 390.765 308.833 390.923 308.447Z" fill="#084FC7"/>
<path d="M423.501 330.856C423.186 331.673 422.818 332.422 422.425 333.126C422.267 333.398 422.11 333.671 421.952 333.921L412.528 331.355C412.055 331.219 411.688 330.946 411.452 330.606C411.189 330.22 411.084 329.72 411.268 329.266C411.583 328.381 412.685 327.904 413.683 328.177L423.501 330.856Z" fill="#084FC7"/>
<path d="M370.263 332.059C370.788 332.013 371.339 332.15 371.759 332.49C372.546 333.103 372.599 334.17 371.89 334.851L360.234 345.953C359.526 346.634 358.292 346.68 357.504 346.067C356.717 345.454 356.664 344.387 357.373 343.706L369.029 332.604C369.37 332.286 369.816 332.104 370.263 332.059Z" fill="#084FC7"/>
<path d="M363.411 306.449C362.886 306.381 362.413 306.109 362.098 305.7C361.521 304.928 361.81 303.884 362.702 303.385L377.403 295.416C378.296 294.916 379.503 295.166 380.081 295.938C380.658 296.71 380.37 297.754 379.477 298.254L364.776 306.222C364.33 306.449 363.857 306.518 363.411 306.449Z" fill="#084FC7"/>
<path d="M372.757 258.137C373.098 258.478 373.308 258.932 373.229 259.431C373.124 260.339 372.153 261.02 371.103 260.907L353.855 259.272C352.805 259.181 352.018 258.341 352.149 257.433C352.254 256.525 353.225 255.844 354.275 255.958L371.523 257.592C372.021 257.638 372.441 257.842 372.757 258.137Z" fill="#084FC7"/>
<path d="M347.686 225.785C347.817 225.331 348.159 224.945 348.657 224.718C349.602 224.287 350.784 224.582 351.283 225.399L359.499 238.612C359.998 239.43 359.657 240.451 358.712 240.883C357.767 241.314 356.585 241.019 356.087 240.202L347.87 226.988C347.634 226.602 347.581 226.171 347.686 225.785Z" fill="#084FC7"/>
<path d="M406.306 350.13C405.203 350.97 404.153 351.72 403.182 352.401L400.924 347.406C400.741 346.997 400.741 346.589 400.924 346.203C401.108 345.771 401.502 345.408 402.027 345.227C403.025 344.886 404.153 345.317 404.547 346.157L406.306 350.13Z" fill="#084FC7"/>
<path d="M247.746 324.703C247.483 324.294 247.431 323.817 247.641 323.341C248.009 322.478 249.111 322.024 250.109 322.342L266.437 327.427C267.435 327.745 267.96 328.699 267.592 329.561C267.225 330.424 266.122 330.878 265.125 330.56L248.796 325.475C248.324 325.339 247.982 325.066 247.746 324.703Z" fill="#084FC7"/>
<path d="M255.753 343.796C256.278 343.796 256.803 344.001 257.197 344.364C257.905 345.045 257.827 346.112 257.039 346.725L244.045 356.669C243.257 357.282 242.023 357.214 241.314 356.533C240.606 355.852 240.684 354.785 241.472 354.172L254.467 344.228C254.834 343.91 255.28 343.774 255.753 343.796Z" fill="#084FC7"/>
<path d="M279.301 359.575C279.642 359.938 279.799 360.415 279.694 360.892C279.51 361.8 278.513 362.413 277.463 362.254L260.373 359.734C259.323 359.575 258.614 358.712 258.798 357.804C258.982 356.896 259.979 356.283 261.029 356.442L278.119 358.962C278.592 359.03 279.012 359.257 279.301 359.575Z" fill="#084FC7"/>
<path d="M293.581 219.133C293.45 218.702 293.503 218.202 293.818 217.793C294.395 217.022 295.603 216.795 296.495 217.294L311.065 225.422C311.958 225.921 312.22 226.966 311.643 227.737C311.065 228.509 309.857 228.736 308.965 228.237L294.395 220.109C294.001 219.859 293.713 219.519 293.581 219.133Z" fill="#084FC7"/>
<path d="M393.049 228.714C393.522 228.487 394.073 228.441 394.624 228.6C395.622 228.918 396.147 229.872 395.806 230.734L390.004 244.878C389.636 245.741 388.534 246.195 387.536 245.9C386.539 245.582 386.014 244.629 386.355 243.766L392.157 229.622C392.314 229.213 392.629 228.895 393.049 228.714Z" fill="#084FC7"/>
<path d="M385.252 210.279L376.3 220.223C375.644 220.949 374.437 221.085 373.597 220.518C372.756 219.95 372.599 218.906 373.255 218.179L381.446 209.098C382.758 209.484 384.018 209.893 385.252 210.279Z" fill="#084FC7"/>
<path d="M297.65 347.497C297.834 347.974 298.307 348.314 298.832 348.405C299.094 348.451 299.383 348.451 299.646 348.36C299.934 348.269 327.997 340.414 357.504 350.993C372.494 356.374 385.83 358.417 396.619 358.236C396.672 357.691 396.724 357.169 396.777 356.692C396.777 356.624 396.803 356.556 396.803 356.51C396.803 356.51 397.407 356.17 398.457 355.534C387.851 355.988 374.279 354.036 358.712 348.473C328.076 337.485 299.829 345.431 298.648 345.772C297.834 345.999 297.388 346.771 297.65 347.497Z" fill="#084FC7"/>
<path d="M365.144 204.58C361.442 209.529 353.829 215.137 338.393 214.184C317.103 212.844 303.085 195.272 298.202 188.052C298.858 188.03 299.226 188.03 299.226 188.03L365.144 204.58Z" fill="#084FC7"/>
<path d="M342.488 237.182C343.118 237.296 343.748 237.364 344.379 237.409C350.259 237.818 355.037 236.342 358.554 233.027C368.793 223.356 364.592 201.288 364.409 200.357C364.251 199.608 363.437 199.109 362.597 199.245C361.731 199.381 361.153 200.085 361.311 200.811C361.363 201.038 365.432 222.493 356.244 231.188C353.383 233.89 349.576 235.048 344.667 234.707C324.033 233.277 300.906 187.939 300.669 187.485C300.328 186.804 299.383 186.486 298.596 186.781C297.808 187.076 297.44 187.893 297.782 188.574C298.701 190.436 320.621 233.345 342.488 237.182Z" fill="white"/>
<path d="M406.752 219.36C405.387 232.437 409.115 254.028 418.881 269.557C418.644 266.219 418.539 262.837 418.592 259.477C418.592 259.363 418.592 259.25 418.592 259.136C418.592 258.795 418.618 258.455 418.618 258.114C418.986 238.272 421.217 228.237 406.752 219.36Z" fill="#EA9B7A"/>
<path d="M285.47 242.381C277.909 267.627 250.24 287.878 231.339 281.567C231.102 280.159 230.892 278.729 230.656 277.321C230.499 276.39 230.341 275.482 230.184 274.551C228.976 267.695 227.558 260.816 225.957 254.141C218.948 225.036 223.883 194.5 257.984 190.89C260.452 190.618 262.893 190.391 265.282 190.164C282.293 196.452 294.159 213.321 285.47 242.381Z" fill="#EA9B7A"/>
<path d="M289.355 223.129L333.668 363.298L317.864 347.542C323.718 350.221 330.491 352.31 337.999 353.763C345.481 355.216 353.671 356.056 362.203 356.442C370.761 356.828 379.661 356.76 388.77 356.442C397.879 356.124 407.199 355.534 416.649 354.83H416.702C430.641 353.808 442.901 362.731 444.082 374.786C445.211 386.274 435.787 396.468 422.818 398.284C413.079 399.624 403.156 400.895 392.996 401.917C382.837 402.938 372.415 403.687 361.599 403.914C350.81 404.119 339.627 403.778 328.076 402.325C316.552 400.872 304.581 398.284 292.873 393.902C285.391 391.11 280.062 385.797 277.62 379.599L277.069 378.146L223.936 240.292C217.95 224.809 227.637 208.054 245.541 202.877C263.444 197.701 282.818 206.079 288.804 221.562C288.987 222.062 289.197 222.652 289.355 223.129Z" fill="#EA9B7A"/>
<path d="M309.201 358.803C308.755 358.803 308.309 358.599 308.072 358.236C307.705 357.691 307.941 357.01 308.571 356.692C308.991 356.487 318.678 351.742 328.811 351.084C329.546 351.039 330.176 351.493 330.229 352.128C330.281 352.764 329.756 353.309 329.021 353.354C319.492 353.99 309.963 358.622 309.884 358.667C309.648 358.758 309.411 358.803 309.201 358.803Z" fill="#D96C63"/>
<path d="M325.294 353.74C325.057 353.74 324.821 353.695 324.611 353.581C318.494 350.38 311.091 349.881 311.013 349.881C310.278 349.835 309.753 349.29 309.805 348.677C309.858 348.042 310.461 347.588 311.196 347.633C311.511 347.656 319.308 348.155 325.95 351.652C326.58 351.969 326.764 352.673 326.396 353.218C326.186 353.559 325.74 353.74 325.294 353.74Z" fill="#D96C63"/>
<path d="M364.828 279.864C384.438 283.292 393.023 265.765 393.102 265.584C393.443 264.88 393.049 264.085 392.235 263.813C391.421 263.518 390.503 263.858 390.188 264.562C389.873 265.221 382.47 280.182 365.459 277.208C347.581 274.075 314.241 243.675 313.926 243.357C313.323 242.812 312.325 242.79 311.695 243.312C311.065 243.834 311.039 244.697 311.643 245.242C313.008 246.49 345.98 276.572 364.828 279.864Z" fill="#084FC7"/>
<path d="M333.983 169.481C333.983 169.481 302.507 164.35 293.634 136.879C285.181 110.725 291.691 97.1486 300.486 83.0272C307.101 72.3794 328.102 58.0083 357.531 63.1619C387.247 68.3609 409.483 81.5742 412.764 102.711C418.907 142.26 381.997 190.504 333.983 169.481Z" fill="#1E1E1E"/>
<path d="M295.13 141.102C294.553 141.102 294.001 140.852 293.713 140.376C293.135 139.513 279.904 118.921 290.904 91.8133C297.782 74.8767 311.301 67.3166 321.461 63.9338C332.434 60.2786 341.648 60.6418 342.042 60.6418C342.935 60.6872 343.643 61.3456 343.591 62.1402C343.538 62.9121 342.803 63.5251 341.885 63.4797C341.806 63.4797 332.854 63.1619 322.511 66.6128C308.755 71.2215 299.173 80.0077 294.001 92.7442C283.527 118.58 296.443 138.764 296.574 138.968C297.02 139.649 296.758 140.512 295.97 140.898C295.682 141.057 295.393 141.102 295.13 141.102Z" fill="#FAAF3A"/>
<path d="M395.044 141.556C395.044 141.556 405.282 134.564 407.986 143.826C410.69 153.089 403.077 169.549 391.159 164.554L395.044 141.556Z" fill="#D96C63"/>
<path d="M385.042 158.583C379.949 160.036 375.46 163.941 374.305 168.777C372.625 175.997 378.033 183.035 386.355 184.511C394.703 185.964 402.841 181.287 404.547 174.09C405.807 168.686 403.103 163.374 398.142 160.445C396.488 159.446 394.572 158.742 392.472 158.379C392.419 158.379 392.367 158.356 392.314 158.356C392.025 159.265 392.13 159.991 392.734 160.559C394.414 160.945 395.937 161.603 397.276 162.466C401.135 165.008 403.208 169.299 402.185 173.681C400.767 179.766 393.863 183.716 386.827 182.49C379.792 181.264 375.224 175.293 376.642 169.209C377.692 164.781 381.472 161.648 386.224 160.649L385.042 158.583Z" fill="#FAAF3A"/>
<path d="M364.015 181.241L359.736 204.444C359.736 204.444 339.653 222.175 302.979 190.368C312.824 184.034 316.578 169.322 315.423 159.832C315.423 159.832 318.31 161.331 322.773 164.827C323.64 165.508 324.768 166.03 325.845 166.689C335.532 172.387 350.39 179.788 364.015 181.241Z" fill="#EA9B7A"/>
<path d="M364.015 181.241L361.993 192.23C350.994 187.984 331.541 178.926 322.773 164.804C323.718 165.394 324.768 166.007 325.845 166.666C335.532 172.387 350.39 179.788 364.015 181.241Z" fill="#1E1E1E"/>
<path d="M404.967 135.971C404.39 138.423 403.865 140.761 403.313 142.986C402.736 145.393 402.185 147.663 401.633 149.797C397.564 165.849 394.23 174.453 388.823 177.677C361.442 193.955 316.893 160.99 315.449 159.923C315.423 159.9 315.423 159.9 315.423 159.9C315.397 158.016 315.397 156.132 315.423 154.293C315.764 138.673 318.836 124.642 323.718 111.679C326.16 97.5119 338.866 86.1603 355.22 84.0262C372.179 81.8239 384.937 90.3149 392.918 94.061C404.967 99.7141 409.666 115.493 404.967 135.971Z" fill="#EA9B7A"/>
<path d="M324.637 97.1032C324.637 97.1032 343.801 65.2279 382.023 74.1276C420.246 83.0272 422.267 98.3746 422.95 106.048C423.632 113.722 403.156 100.123 403.156 100.123C403.156 100.123 402.447 115.47 395.622 110.748C387.247 104.936 377.902 92.4263 377.902 92.4263C377.902 92.4263 355.142 111.769 333.51 106.548C321.224 103.596 324.637 97.1032 324.637 97.1032Z" fill="#1E1E1E"/>
<path d="M371.601 167.233C366.64 167.233 363.227 164.259 363.07 164.1C362.545 163.624 362.545 162.874 363.096 162.42C363.647 161.966 364.487 161.966 365.012 162.443C365.196 162.602 369.134 165.985 374.332 164.441C375.04 164.237 375.828 164.554 376.064 165.167C376.301 165.78 375.933 166.462 375.224 166.666C373.938 167.074 372.73 167.233 371.601 167.233Z" fill="#D96C63"/>
<path d="M360.156 147.936C360.156 147.936 378.584 152.658 388.14 152.658C388.14 152.658 383.362 164.464 369.711 160.332C359.079 157.108 360.156 147.936 360.156 147.936Z" fill="white"/>
<path d="M394.388 114.744C394.388 114.744 389.61 114.312 390.371 118.331C391.159 122.349 401.528 119.897 406.674 127.934C406.647 127.934 411.609 119.511 394.388 114.744Z" fill="#1E1E1E"/>
<path d="M373.098 111.02C373.098 111.02 377.692 112.246 375.172 115.674C372.652 119.103 364.199 113.359 355.85 119.035C355.85 119.035 355.063 109.59 373.098 111.02Z" fill="#1E1E1E"/>
<path d="M364.776 139.785C364.33 141.67 359.447 142.419 353.882 141.443C348.316 140.466 344.169 138.151 344.615 136.244C345.061 134.359 349.918 133.61 355.509 134.586C361.075 135.562 365.222 137.878 364.776 139.785Z" fill="#D96C63"/>
<path d="M419.196 141.034L404.311 138.832C404.232 139.377 404.075 139.921 403.944 140.444C403.917 140.534 403.891 140.625 403.839 140.716L418.828 142.918C419.432 143.009 420.01 142.646 420.115 142.124C420.193 141.624 419.826 141.102 419.196 141.034Z" fill="white"/>
<path d="M379.451 130.046C379.451 129.387 379.425 128.729 379.32 128.093C378.821 124.597 377.036 121.373 374.306 118.876C371.785 116.583 368.504 114.902 364.697 114.176C364.645 114.153 364.566 114.153 364.514 114.131C355.798 112.587 347.214 116.537 343.67 123.257C343.355 123.848 343.092 124.438 342.856 125.051C342.646 125.596 342.488 126.163 342.331 126.731C341.333 130.954 342.305 135.131 344.746 138.537C345.56 139.694 346.584 140.761 347.713 141.692C350.18 143.758 353.304 145.257 356.901 145.892C362.965 146.982 368.924 145.393 373.203 142.078C376.091 139.853 378.217 136.811 379.057 133.292C379.057 133.269 379.057 133.269 379.057 133.247C379.32 132.18 379.451 131.09 379.451 130.046ZM357.347 144.008C357.242 143.985 357.163 143.985 357.084 143.963C352.385 143.054 348.579 140.466 346.348 137.084C344.431 134.155 343.67 130.659 344.51 127.117C344.694 126.39 344.93 125.687 345.219 125.005C345.245 124.96 345.271 124.915 345.271 124.869C347.608 119.625 353.304 116.06 359.71 115.742C361.127 115.674 362.571 115.743 364.041 116.015C367.191 116.583 369.922 117.877 372.1 119.67C376.091 122.962 378.086 127.911 376.904 132.906C375.041 140.625 366.273 145.62 357.347 144.008Z" fill="white"/>
<path d="M412.79 123.394C412.292 123.166 411.767 122.962 411.215 122.758C410.585 122.531 409.929 122.349 409.273 122.168C408.8 122.054 408.354 121.94 407.855 121.872C406.963 121.713 406.096 121.623 405.23 121.577C404.18 121.509 403.13 121.532 402.106 121.645C399.245 121.918 396.541 122.735 394.152 124.029C391.527 125.437 389.295 127.412 387.773 129.796C387.353 130.409 387.011 131.044 386.696 131.68C386.67 131.726 386.67 131.748 386.644 131.794C386.25 132.656 385.935 133.565 385.699 134.495C384.202 140.761 387.116 146.937 392.603 150.615C394.388 151.818 396.436 152.749 398.693 153.316C399.035 153.407 399.376 153.498 399.743 153.543C399.927 153.589 400.085 153.611 400.268 153.657C402.08 153.975 403.891 154.066 405.65 153.929C405.939 153.907 406.227 153.884 406.49 153.861C407.251 153.77 408.013 153.657 408.774 153.475C410.165 153.157 411.53 152.703 412.79 152.136C417.594 149.956 421.27 146.006 422.451 141.057C424.157 133.814 420.01 126.685 412.79 123.394ZM420.272 140.648C420.193 140.966 420.115 141.261 420.01 141.556C419.878 141.987 419.721 142.396 419.537 142.827C418.224 145.847 415.809 148.299 412.764 149.911C411.662 150.501 410.454 150.978 409.194 151.341C408.406 151.568 407.619 151.727 406.779 151.841C406.542 151.886 406.306 151.909 406.07 151.931C404.337 152.113 402.526 152.068 400.715 151.75C400.557 151.727 400.373 151.682 400.216 151.659C400.111 151.636 400.006 151.614 399.927 151.591C397.276 151.001 394.913 149.865 392.997 148.344C392.708 148.117 392.445 147.89 392.183 147.663C388.534 144.394 386.749 139.649 387.878 134.859C388.14 133.792 388.534 132.747 389.033 131.794C390.686 128.661 393.574 126.231 397.066 124.801C399.218 123.916 401.607 123.439 404.075 123.439C404.469 123.439 404.862 123.462 405.282 123.484C405.991 123.53 406.7 123.621 407.409 123.734C407.934 123.825 408.433 123.938 408.931 124.075C409.614 124.256 410.27 124.483 410.927 124.733C411.425 124.937 411.924 125.164 412.423 125.391C418.356 128.434 421.742 134.495 420.272 140.648Z" fill="white"/>
<path d="M319.938 126.163C319.807 126.141 319.676 126.095 319.571 126.027C319.046 125.732 318.914 125.142 319.229 124.71C326.685 114.63 344.615 123.689 344.772 123.779C345.297 124.052 345.481 124.642 345.166 125.096C344.851 125.55 344.169 125.709 343.643 125.437C343.486 125.346 327.394 117.241 321.093 125.755C320.831 126.095 320.358 126.254 319.938 126.163Z" fill="white"/>
<path d="M387.51 132.225C387.221 132.18 386.985 132.021 386.801 131.816C384.412 128.638 379.319 130.068 379.267 130.068C378.689 130.227 378.059 129.955 377.876 129.455C377.692 128.956 378.007 128.411 378.584 128.252C380.921 127.571 386.04 127.23 388.691 130.772C389.033 131.226 388.875 131.816 388.35 132.089C388.087 132.248 387.772 132.293 387.51 132.225Z" fill="white"/>
<g opacity="0.8">
<path d="M403.314 142.986C402.736 145.393 402.185 147.663 401.633 149.797C396.567 148.73 392.918 146.574 393.338 144.78C393.758 142.986 398.142 142.237 403.314 142.986Z" fill="#D96C63"/>
</g>
<path d="M368.688 130.273C368.084 132.883 366.22 134.745 364.54 134.45C362.86 134.155 361.993 131.816 362.597 129.206C363.201 126.595 365.065 124.733 366.745 125.028C368.425 125.323 369.318 127.662 368.688 130.273Z" fill="#1E1E1E"/>
<path d="M398.457 135.494C397.853 138.105 395.989 139.967 394.309 139.672C392.629 139.377 391.763 137.038 392.367 134.427C392.97 131.816 394.834 129.955 396.514 130.25C398.194 130.522 399.087 132.884 398.457 135.494Z" fill="#1E1E1E"/>
<path d="M383.1 142.464C384.544 142.714 385.567 142.669 385.646 142.669C385.987 142.646 386.329 142.51 386.565 142.283C386.801 142.056 386.88 141.738 386.854 141.443L384.937 129.296C384.832 128.706 384.202 128.275 383.52 128.365C382.837 128.456 382.338 129.001 382.443 129.591L384.15 140.421C382.89 140.262 381 139.808 379.293 138.582C378.768 138.196 377.954 138.264 377.508 138.718C377.062 139.172 377.141 139.876 377.666 140.262C379.53 141.601 381.551 142.192 383.1 142.464Z" fill="#1E1E1E"/>
<path d="M327.709 151.069C327.499 151.341 321.671 158.583 315.449 159.9C315.423 159.878 315.423 159.878 315.423 159.878C315.37 157.993 315.397 156.109 315.423 154.27C315.633 154.293 321.592 154.429 327.709 151.069Z" fill="#1E1E1E"/>
<path d="M326.449 132.043C326.449 132.043 317.68 115.97 306.314 125.391C296.942 133.179 305.132 159.151 321.408 153.589L326.449 132.043Z" fill="#EA9B7A"/>
<path d="M304.896 145.892C299.803 147.345 295.314 151.25 294.159 156.086C292.479 163.306 297.887 170.344 306.209 171.82C314.557 173.273 322.695 168.596 324.401 161.399C325.661 155.995 322.957 150.683 317.996 147.754C316.342 146.755 314.425 146.051 312.325 145.688C312.273 145.688 312.22 145.665 312.168 145.665C311.879 146.574 312.01 147.3 312.588 147.868C314.268 148.254 315.79 148.912 317.129 149.775C320.988 152.317 323.062 156.608 322.038 160.99C320.621 167.075 313.717 171.025 306.681 169.799C299.646 168.573 295.078 162.602 296.495 156.518C297.519 152.09 301.326 148.957 306.077 147.958L304.896 145.892Z" fill="#FAAF3A"/>
<path d="M320.726 149.094C320.778 149.094 320.804 149.116 320.857 149.116C321.539 149.162 322.17 148.73 322.222 148.117C323.508 135.971 312.903 129.819 312.456 129.569C311.879 129.228 311.091 129.387 310.698 129.887C310.304 130.386 310.488 131.067 311.065 131.408C311.459 131.635 320.857 137.129 319.702 147.936C319.649 148.481 320.096 148.98 320.726 149.094Z" fill="#1E1E1E"/>
<path d="M310.698 140.58C310.96 140.625 311.275 140.603 311.538 140.466C312.798 139.899 316.499 138.627 318.521 139.467C319.151 139.74 319.912 139.513 320.201 138.968C320.516 138.423 320.253 137.765 319.623 137.515C316.105 136.039 310.96 138.287 310.383 138.537C309.753 138.809 309.516 139.467 309.858 140.012C310.015 140.33 310.33 140.512 310.698 140.58Z" fill="#1E1E1E"/>
<path d="M337.737 104.754C337.737 104.754 325.95 132.429 325.32 138.014C324.453 145.62 312.824 119.557 324.506 97.3076L337.737 104.754Z" fill="#1E1E1E"/>
<path d="M534.651 691.519H486.111C486.111 691.519 474.875 644.932 471.121 618.823C467.341 592.692 465.399 530.78 465.399 530.78C465.399 530.78 426.73 541.655 345.77 537.546C166.392 528.487 234.41 414.517 234.41 414.517C240.474 421.759 285.942 431.726 311.301 435.2C389.19 441.67 448.387 453.112 488.92 468.233C498.686 471.865 507.349 475.725 514.962 479.789C524.727 484.988 530.844 500.812 534.546 521.585C545.597 584.019 534.651 691.519 534.651 691.519Z" fill="#1E1E1E"/>
<path d="M492.149 669.065C491.335 669.065 490.627 668.566 490.443 667.862C483.434 637.894 481.097 600.593 479.207 570.624C477.632 545.764 476.162 522.289 472.46 519.474C469.468 517.181 457.051 518.975 441.352 521.222C410.086 525.717 362.833 532.483 310.75 522.017C282.372 516.296 261.502 504.376 248.744 486.577C226.718 455.882 236.773 417.809 236.878 417.423C237.088 416.606 238.033 416.106 238.978 416.311C239.923 416.492 240.501 417.31 240.264 418.127C240.159 418.49 230.472 455.383 251.736 485.011C263.996 502.106 284.131 513.571 311.564 519.088C362.991 529.441 409.824 522.721 440.827 518.271C459.387 515.614 470.596 514.002 474.823 517.226C479.391 520.723 480.677 537.886 482.725 570.465C484.615 600.343 486.951 637.508 493.908 667.272C494.092 668.089 493.488 668.884 492.543 669.043C492.385 669.065 492.254 669.065 492.149 669.065Z" fill="#585859"/>
<path d="M535.596 669.86H535.569L481.596 668.861C480.625 668.838 479.863 668.157 479.889 667.317C479.916 666.477 480.703 665.819 481.675 665.842L535.648 666.841C536.619 666.863 537.381 667.544 537.354 668.384C537.302 669.202 536.514 669.86 535.596 669.86Z" fill="#585859"/>
<path d="M533.312 745.28H499.079L492.464 710.544L488.867 691.519H531.421L532.078 710.544L533.312 745.28Z" fill="#EA9B7A"/>
<path d="M533.312 745.28H499.079L494.144 719.421L492.464 710.544H532.078L532.419 719.739L533.312 745.28Z" fill="#FAAF3A"/>
<path d="M532.419 719.739L494.144 719.421L492.464 710.544H532.078L532.419 719.739Z" fill="#C77E2E"/>
<path d="M617.842 792.071H488.29C487.319 790.55 486.794 788.416 486.584 785.851C485.77 776.361 489.261 761.24 490.968 751.705C491.178 750.593 491.361 749.548 491.493 748.617C491.729 747.028 491.886 745.689 491.886 744.712C491.886 736.925 499.841 738.265 499.841 738.265C512.94 749.389 527.799 732.725 536.462 738.174C536.462 738.174 536.803 738.401 537.617 738.923C538.352 739.423 539.455 740.194 540.977 741.307C543.182 742.896 546.28 745.212 550.48 748.481C560.771 756.495 578.254 761.763 593.139 767.143C595.029 767.824 596.788 768.505 598.442 769.209C599.676 769.731 600.857 770.253 601.96 770.753C614.141 776.429 618 781.878 618.892 785.828C619.758 789.642 617.842 792.071 617.842 792.071Z" fill="#0875F7"/>
<path d="M601.986 770.798C598.652 773.091 591.223 777.7 585.264 777.7C585.001 777.7 584.739 777.7 584.476 777.678C580.276 777.382 564.84 770.821 552.265 764.85C545.072 761.422 538.483 758.062 533.758 755.36C526.014 750.933 524.649 749.253 524.36 748.073C523.231 743.645 531.684 740.58 537.617 738.969C538.352 739.468 539.454 740.24 540.977 741.352C533.627 743.078 527.562 745.802 527.851 747.346C528.586 748.663 536.252 753.703 554.575 762.398C568.568 769.028 581.825 774.363 584.765 774.59C588.755 774.862 594.609 771.729 598.442 769.255C599.702 769.754 600.883 770.276 601.986 770.798Z" fill="#084FC7"/>
<path d="M617.842 792.071H488.29C487.319 790.55 486.794 788.416 486.584 785.851H618.918C619.758 789.642 617.842 792.071 617.842 792.071Z" fill="#084FC7"/>
<path d="M501.521 792.071H497.662C501.495 788.28 505.091 782.445 504.618 774.136C503.988 763.057 496.323 755.61 490.968 751.705C491.178 750.593 491.361 749.548 491.493 748.617C497.242 752.409 506.929 760.741 507.69 773.999C508.162 781.946 505.144 787.871 501.521 792.071Z" fill="#084FC7"/>
<path d="M548.301 755.11C547.356 755.11 546.464 754.543 546.227 753.703C545.939 752.704 546.647 751.705 547.776 751.455L555.862 749.707C557.017 749.457 558.172 750.07 558.461 751.047C558.749 752.046 558.041 753.044 556.912 753.294L548.826 755.042C548.642 755.088 548.485 755.11 548.301 755.11Z" fill="white"/>
<path d="M540.268 749.298C539.297 749.298 538.431 748.731 538.194 747.891C537.906 746.892 538.614 745.893 539.743 745.643L547.829 743.895C548.984 743.645 550.139 744.258 550.428 745.235C550.716 746.233 550.008 747.232 548.879 747.482L540.793 749.23C540.61 749.276 540.426 749.298 540.268 749.298Z" fill="white"/>
<path d="M556.387 759.174C555.442 759.174 554.549 758.607 554.313 757.767C554.024 756.768 554.733 755.769 555.862 755.542L563.947 753.794C565.102 753.544 566.257 754.157 566.546 755.133C566.835 756.132 566.126 757.131 564.997 757.381L556.912 759.129C556.754 759.174 556.571 759.174 556.387 759.174Z" fill="white"/>
<path d="M564.499 763.102C563.554 763.102 562.661 762.534 562.425 761.694C562.136 760.695 562.845 759.697 563.974 759.469L572.059 757.721C573.214 757.472 574.369 758.085 574.658 759.061C574.947 760.06 574.238 761.059 573.109 761.308L565.024 763.057C564.84 763.079 564.656 763.102 564.499 763.102Z" fill="white"/>
<path d="M573.319 766.712C572.374 766.712 571.482 766.144 571.245 765.304C570.957 764.305 571.665 763.306 572.794 763.079L580.88 761.331C582.035 761.081 583.19 761.694 583.479 762.671C583.767 763.67 583.059 764.668 581.93 764.918L573.844 766.666C573.66 766.689 573.477 766.712 573.319 766.712Z" fill="white"/>
<path d="M582.875 769.799C581.903 769.799 581.037 769.232 580.801 768.392C580.512 767.393 581.221 766.394 582.35 766.144L590.435 764.396C591.59 764.146 592.745 764.759 593.034 765.736C593.323 766.734 592.614 767.733 591.485 767.983L583.4 769.731C583.216 769.777 583.059 769.799 582.875 769.799Z" fill="white"/>
<path d="M713.424 412.814V422.122C713.424 427.48 709.697 431.817 705.076 431.817H123.68C119.06 431.817 115.332 427.48 115.332 422.122V412.814C115.332 407.456 119.06 403.12 123.68 403.12H705.05C709.697 403.143 713.424 407.479 713.424 412.814Z" fill="#20B486"/>
<path d="M713.424 415.766H115.332V420.034H713.424V415.766Z" fill="#217C58"/>
<path d="M695.967 455.723H149.46C147.018 455.723 145.023 453.998 145.023 451.886V431.681H700.377V451.886C700.377 454.02 698.408 455.723 695.967 455.723Z" fill="#217C58"/>
<path d="M671.422 574.348H182.694V590.83H671.422V574.348Z" fill="#217C58"/>
<path d="M147.464 795L242.076 455.723H208.841L114.23 795H147.464Z" fill="#20B486"/>
<path d="M705.995 795L611.384 455.723H644.619L739.23 795H705.995Z" fill="#20B486"/>
<path d="M168.431 325.154L158.18 326.511L170.028 393.411L180.279 392.054L168.431 325.154Z" fill="#FAAF3A"/>
<path d="M168.44 325.134L158.175 326.496L160.433 319.708L161.614 316.212L163.951 319.254L168.44 325.134Z" fill="#EA9B7A"/>
<path d="M179.408 387.184L169.158 388.541L170.02 393.411L180.27 392.054L179.408 387.184Z" fill="#1E1E1E"/>
<path d="M180.279 395.991L171.38 397.172C171.012 397.217 170.645 396.99 170.592 396.672L170.015 393.38L180.279 392.018L180.857 395.31C180.935 395.628 180.673 395.946 180.279 395.991Z" fill="#DF615C"/>
<path d="M163.951 319.254L160.433 319.708L161.614 316.212L163.951 319.254Z" fill="#1E1E1E"/>
<path d="M178.813 383.695L168.563 385.052L169.179 388.531L179.429 387.173L178.813 383.695Z" fill="#C77E2E"/>
<path d="M161.325 329.448L170.093 378.986C170.172 379.35 170.566 379.622 170.986 379.554C171.406 379.486 171.721 379.145 171.642 378.782L162.874 329.244C162.796 328.88 162.402 328.608 161.982 328.676C161.535 328.721 161.247 329.062 161.325 329.448Z" fill="#C77E2E"/>
<path d="M165.316 328.903L174.084 378.441C174.163 378.805 174.556 379.077 174.976 379.009C175.423 378.941 175.711 378.6 175.633 378.237L166.865 328.699C166.786 328.335 166.392 328.063 165.972 328.131C165.552 328.199 165.263 328.54 165.316 328.903Z" fill="#C77E2E"/>
<path d="M186.977 325.439L176.607 325.469L176.865 393.147L187.234 393.117L186.977 325.439Z" fill="#20B486"/>
<path d="M187 325.429L176.604 325.475L180.017 319.05L181.776 315.735L183.534 319.05L187 325.429Z" fill="#EA9B7A"/>
<path d="M187.227 388.191L176.858 388.22L176.877 393.147L187.246 393.117L187.227 388.191Z" fill="#1E1E1E"/>
<path d="M186.58 397.035L177.575 397.058C177.182 397.058 176.893 396.786 176.893 396.468V393.153L187.262 393.13V396.445C187.262 396.763 186.947 397.035 186.58 397.035Z" fill="#DF615C"/>
<path d="M183.535 319.05H180.017L181.776 315.735L183.535 319.05Z" fill="#1E1E1E"/>
<path d="M187.204 384.672L176.834 384.701L176.848 388.22L187.217 388.191L187.204 384.672Z" fill="#217C58"/>
<path d="M179.203 328.79L179.387 378.895C179.387 379.281 179.754 379.577 180.174 379.577C180.621 379.577 180.962 379.259 180.962 378.895L180.778 328.79C180.778 328.404 180.411 328.108 179.991 328.108C179.544 328.108 179.203 328.426 179.203 328.79Z" fill="#217C58"/>
<path d="M183.272 328.79L183.456 378.896C183.456 379.281 183.823 379.577 184.243 379.577C184.69 379.577 185.031 379.259 185.031 378.896L184.847 328.79C184.847 328.404 184.48 328.108 184.06 328.108C183.613 328.086 183.272 328.404 183.272 328.79Z" fill="#217C58"/>
<path d="M194.617 325.104L183.614 392.112L193.881 393.373L204.883 326.365L194.617 325.104Z" fill="#0875F7"/>
<path d="M204.903 326.383L194.613 325.134L199.049 319.209L201.333 316.144L202.567 319.64L204.903 326.383Z" fill="#EA9B7A"/>
<path d="M194.697 388.525L184.431 387.264L183.63 392.142L193.897 393.403L194.697 388.525Z" fill="#1E1E1E"/>
<path d="M192.565 397.194L183.666 396.105C183.298 396.059 183.036 395.764 183.088 395.423L183.64 392.132L193.904 393.403L193.353 396.695C193.3 397.013 192.959 397.24 192.565 397.194Z" fill="#DF615C"/>
<path d="M202.567 319.64L199.049 319.209L201.333 316.144L202.567 319.64Z" fill="#1E1E1E"/>
<path d="M185.014 383.763L184.442 387.247L194.708 388.509L195.281 385.025L185.014 383.763Z" fill="#084FC7"/>
<path d="M196.634 328.744L188.496 378.351C188.444 378.737 188.732 379.077 189.179 379.123C189.625 379.168 190.019 378.918 190.071 378.532L198.209 328.926C198.262 328.54 197.973 328.199 197.527 328.154C197.107 328.108 196.687 328.381 196.634 328.744Z" fill="#084FC7"/>
<path d="M200.651 329.244L192.512 378.85C192.46 379.236 192.749 379.577 193.195 379.622C193.641 379.667 194.035 379.418 194.088 379.032L202.226 329.425C202.278 329.039 201.989 328.699 201.543 328.653C201.123 328.608 200.703 328.858 200.651 329.244Z" fill="#084FC7"/>
<path d="M208.263 352.197L207.738 355.829L207.24 359.144L206.478 364.138L206.006 367.408L205.245 372.448L204.772 375.672L204.011 380.757L203.538 383.936L202.777 389.067L202.304 392.2L201.517 397.376L201.07 400.464L200.677 403.143H159.882L159.488 400.464L159.015 397.376L158.254 392.2L157.781 389.067L157.02 383.936L156.548 380.757L155.786 375.672L155.288 372.448L154.553 367.408L154.054 364.138L153.319 359.144L152.82 355.829L152.269 352.197H208.263Z" fill="#DF615C"/>
<path d="M207.738 355.829L207.24 359.144H153.319L152.82 355.829H207.738Z" fill="#B11722"/>
<path d="M206.478 364.138L206.006 367.408H154.552L154.054 364.138H206.478Z" fill="#B11722"/>
<path d="M205.244 372.448L204.772 375.672H155.786L155.287 372.448H205.244Z" fill="#B11722"/>
<path d="M204.011 380.757L203.538 383.936H157.02L156.548 380.757H204.011Z" fill="#B11722"/>
<path d="M202.777 389.067L202.304 392.2H158.254L157.781 389.067H202.777Z" fill="#B11722"/>
<path d="M201.517 397.376L201.07 400.464H159.488L159.015 397.376H201.517Z" fill="#B11722"/>
<path d="M710.038 223.197L675.254 350.426L674.336 353.763L671.999 362.322C670.975 366.046 667.169 368.656 662.759 368.656H428.436C422.293 368.656 417.778 363.707 419.196 358.553L457.234 219.428C458.258 215.728 462.065 213.117 466.475 213.117H700.797C706.914 213.094 711.456 218.043 710.038 223.197Z" fill="#1E1E1E"/>
<path d="M675.255 350.426L674.336 353.763H431.035V350.426H675.255Z" fill="#585859"/>
<path d="M522.863 244.583C520.921 253.597 510.893 260.907 500.471 260.907C490.049 260.907 483.171 253.597 485.114 244.583C487.056 235.57 497.084 228.26 507.506 228.26C517.928 228.26 524.806 235.57 522.863 244.583Z" fill="#FAAF3A"/>
<path d="M501.547 241.473C501.153 243.267 500.103 244.742 499.211 244.742C498.292 244.742 497.872 243.289 498.266 241.473C498.659 239.679 499.709 238.204 500.602 238.204C501.495 238.204 501.915 239.657 501.547 241.473Z" fill="#1E1E1E"/>
<path d="M511.392 241.473C510.998 243.267 509.948 244.742 509.055 244.742C508.136 244.742 507.716 243.289 508.11 241.473C508.504 239.679 509.554 238.204 510.447 238.204C511.365 238.204 511.785 239.657 511.392 241.473Z" fill="#1E1E1E"/>
<path d="M502.44 252.529C494.328 252.529 493.987 245.514 493.987 245.446C493.96 245.06 494.328 244.674 494.8 244.606C495.273 244.515 495.64 244.765 495.667 245.151C495.667 245.401 495.982 251.122 502.781 251.122C509.554 251.122 512.336 245.401 512.468 245.151C512.651 244.765 513.15 244.515 513.57 244.606C513.99 244.697 514.2 245.06 514.017 245.446C513.912 245.514 510.551 252.529 502.44 252.529Z" fill="#1E1E1E"/>
<path d="M631.178 320.821C631.388 329.266 647.926 339.846 647.926 339.846C647.926 339.846 667.143 329.266 669.479 320.821C671.999 311.671 659.923 308.856 650.972 315.758C643.752 308.856 630.968 311.649 631.178 320.821Z" fill="#DF615C"/>
<path d="M596.184 296.324C595.056 305.087 585.946 312.171 575.839 312.171C565.732 312.171 558.408 305.065 559.537 296.324C560.666 287.56 569.775 280.477 579.882 280.477C589.989 280.477 597.287 287.56 596.184 296.324Z" fill="#585859"/>
<path d="M475.742 213.094L435.235 368.656H428.41C422.267 368.656 417.752 363.707 419.169 358.553L457.208 219.428C458.232 215.728 462.038 213.094 466.449 213.094H475.742Z" fill="#585859"/>
<path d="M543.629 368.679L536.514 403.233H559.983L567.098 368.679H543.629Z" fill="white"/>
<path d="M501.363 397.285L506.167 391.45C507.874 389.362 510.656 388.136 513.623 388.136H577.992C581.405 388.136 584.529 389.77 586.104 392.381L589.333 397.739C590.855 400.237 588.755 403.256 585.474 403.256H504.907C501.39 403.233 499.316 399.782 501.363 397.285Z" fill="white"/>
<path d="M367.244 403.233H560.613L562.714 396.922C564.026 392.949 560.587 388.998 555.809 388.998H377.377C374.174 388.998 371.365 390.837 370.473 393.494L367.244 403.233Z" fill="white"/>
<path d="M620.809 171.57L535.281 171.524C531.973 171.524 529.269 169.186 529.269 166.325L529.295 120.873C529.295 118.013 531.999 115.674 535.307 115.674L620.835 115.72C624.142 115.72 626.846 118.058 626.846 120.919L626.82 166.371C626.82 169.254 624.116 171.57 620.809 171.57Z" fill="#DF615C"/>
<path d="M615.716 163.192L607.893 188.643L594.268 164.713L615.716 163.192Z" fill="#DF615C"/>
<path d="M599.65 139.513C597.917 149.048 577.31 160.99 577.31 160.99C577.31 160.99 557.49 149.025 556.361 139.467C555.127 129.115 569.303 125.959 578.202 133.769C587.6 125.982 601.566 129.16 599.65 139.513Z" fill="white"/>
<path d="M51.8642 58.2616C51.8401 53.0488 56.2357 48.906 61.4379 49.2383L120.915 53.0379C128.77 53.5397 132.242 63.1708 126.514 68.569L67.3124 124.367C61.5849 129.766 52.176 125.73 52.1396 117.86L51.8642 58.2616Z" fill="#1E1E1E" fill-opacity="0.5"/>
<path d="M714.934 132.477C726.03 125.194 733.938 114.046 736.921 101.487C739.903 88.9277 737.714 75.9855 730.836 65.5075C723.958 55.0294 712.954 47.8739 700.245 45.6151C687.535 43.3562 674.162 46.1791 663.066 53.4626L689 92.97L714.934 132.477Z" fill="#20B486" fill-opacity="0.3"/>
<path d="M17.7771 591.301C25.8883 577.251 43.8524 572.437 57.9008 580.549C71.9491 588.66 76.7629 606.625 68.6517 620.675C60.5405 634.725 42.5764 639.539 28.528 631.427C14.4796 623.316 9.66588 605.351 17.7771 591.301Z" stroke="#FAB437" stroke-opacity="0.3" stroke-width="18.8302"/>
</svg>
