<svg width="28" height="28" viewBox="0 0 28 28" fill="none" xmlns="http://www.w3.org/2000/svg">
<circle cx="14" cy="14" r="14" fill="#24D198"/>
<path d="M7.33333 18.1667V9.83337L13.1667 18.1667V9.83337M16.5 18.1667H20.6667M16.5 12.3334C16.5 12.9964 16.7195 13.6323 17.1102 14.1011C17.5009 14.57 18.0308 14.8334 18.5833 14.8334C19.1359 14.8334 19.6658 14.57 20.0565 14.1011C20.4472 13.6323 20.6667 12.9964 20.6667 12.3334C20.6667 11.6703 20.4472 11.0344 20.0565 10.5656C19.6658 10.0968 19.1359 9.83337 18.5833 9.83337C18.0308 9.83337 17.5009 10.0968 17.1102 10.5656C16.7195 11.0344 16.5 11.6703 16.5 12.3334Z" stroke="white" stroke-width="2" stroke-linecap="round" stroke-linejoin="round"/>
</svg>
