<svg width="39" height="25" viewBox="0 0 39 25" fill="none" xmlns="http://www.w3.org/2000/svg">
<path d="M9.986 16.562C9.986 17.138 9.842 17.69 9.554 18.218C9.266 18.734 8.84 19.166 8.276 19.514C7.724 19.862 7.058 20.06 6.278 20.108L6.278 21.566L5.306 21.566L5.306 20.108C4.214 20.012 3.326 19.664 2.642 19.064C1.958 18.452 1.61 17.678 1.598 16.742L3.344 16.742C3.392 17.246 3.578 17.684 3.902 18.056C4.238 18.428 4.706 18.662 5.306 18.758L5.306 14.258C4.502 14.054 3.854 13.844 3.362 13.628C2.87 13.412 2.45 13.076 2.102 12.62C1.754 12.164 1.58 11.552 1.58 10.784C1.58 9.812 1.916 9.008 2.588 8.372C3.272 7.736 4.178 7.382 5.306 7.31L5.306 5.816L6.278 5.816L6.278 7.31C7.298 7.394 8.12 7.724 8.744 8.3C9.368 8.864 9.728 9.602 9.824 10.514L8.078 10.514C8.018 10.094 7.832 9.716 7.52 9.38C7.208 9.032 6.794 8.804 6.278 8.696L6.278 13.088C7.07 13.292 7.712 13.502 8.204 13.718C8.708 13.922 9.128 14.252 9.464 14.708C9.812 15.164 9.986 15.782 9.986 16.562ZM3.254 10.694C3.254 11.282 3.428 11.732 3.776 12.044C4.124 12.356 4.634 12.614 5.306 12.818L5.306 8.66C4.682 8.72 4.184 8.924 3.812 9.272C3.44 9.608 3.254 10.082 3.254 10.694ZM6.278 18.776C6.926 18.704 7.43 18.47 7.79 18.074C8.162 17.678 8.348 17.204 8.348 16.652C8.348 16.064 8.168 15.614 7.808 15.302C7.448 14.978 6.938 14.72 6.278 14.528L6.278 18.776ZM17.4141 18.686C18.9381 17.462 20.1321 16.46 20.9961 15.68C21.8601 14.888 22.5861 14.066 23.1741 13.214C23.7741 12.35 24.0741 11.504 24.0741 10.676C24.0741 9.896 23.8821 9.284 23.4981 8.84C23.1261 8.384 22.5201 8.156 21.6801 8.156C20.8641 8.156 20.2281 8.414 19.7721 8.93C19.3281 9.434 19.0881 10.112 19.0521 10.964L17.4681 10.964C17.5161 9.62 17.9241 8.582 18.6921 7.85C19.4601 7.118 20.4501 6.752 21.6621 6.752C22.8981 6.752 23.8761 7.094 24.5961 7.778C25.3281 8.462 25.6941 9.404 25.6941 10.604C25.6941 11.6 25.3941 12.572 24.7941 13.52C24.2061 14.456 23.5341 15.284 22.7781 16.004C22.0221 16.712 21.0561 17.54 19.8801 18.488L26.0721 18.488L26.0721 19.856L17.4141 19.856L17.4141 18.686ZM27.9656 13.358C27.9656 11.294 28.3016 9.686 28.9736 8.534C29.6456 7.37 30.8216 6.788 32.5016 6.788C34.1696 6.788 35.3396 7.37 36.0116 8.534C36.6836 9.686 37.0196 11.294 37.0196 13.358C37.0196 15.458 36.6836 17.09 36.0116 18.254C35.3396 19.418 34.1696 20 32.5016 20C30.8216 20 29.6456 19.418 28.9736 18.254C28.3016 17.09 27.9656 15.458 27.9656 13.358ZM35.3996 13.358C35.3996 12.314 35.3276 11.432 35.1836 10.712C35.0516 9.98 34.7696 9.392 34.3376 8.948C33.9176 8.504 33.3056 8.282 32.5016 8.282C31.6856 8.282 31.0616 8.504 30.6296 8.948C30.2096 9.392 29.9276 9.98 29.7836 10.712C29.6516 11.432 29.5856 12.314 29.5856 13.358C29.5856 14.438 29.6516 15.344 29.7836 16.076C29.9276 16.808 30.2096 17.396 30.6296 17.84C31.0616 18.284 31.6856 18.506 32.5016 18.506C33.3056 18.506 33.9176 18.284 34.3376 17.84C34.7696 17.396 35.0516 16.808 35.1836 16.076C35.3276 15.344 35.3996 14.438 35.3996 13.358Z" fill="#1E1E1E" fill-opacity="0.5"/>
<rect x="0.5" y="13" width="38" height="1" fill="#1E1E1E" fill-opacity="0.5"/>
</svg>
